<svg id="レイヤー_1" data-name="レイヤー 1" xmlns="http://www.w3.org/2000/svg" viewBox="0 0 642 354"><defs><style>.cls-1{fill:#fbe6e8;}.cls-2{fill:#323333;}</style></defs><title>hyou1_SP</title><rect class="cls-1" x="130" y="1.21" width="255" height="49.37"/><path class="cls-2" d="M433.5,300.71v48.37h-254V300.71h254m1-1h-256v50.37h256V299.71Z" transform="translate(-49 -299)"/><rect class="cls-1" x="2" y="1.21" width="127" height="99.73"/><path class="cls-2" d="M177.5,300.71v98.74H51.5V300.71h126m1-1H50.5V400.45h128V299.71Z" transform="translate(-49 -299)"/><path class="cls-2" d="M305.5,351.08v48.37h-126V351.08h126m1-1h-128v50.37h128V350.08Z" transform="translate(-49 -299)"/><path class="cls-2" d="M433.5,351.08v48.37h-126V351.08h126m1-1h-128v50.37h128V350.08Z" transform="translate(-49 -299)"/><rect class="cls-1" x="386" y="1.21" width="127" height="99.73"/><path class="cls-2" d="M561.5,300.71v98.74h-126V300.71h126m1-1h-128V400.45h128V299.71Z" transform="translate(-49 -299)"/><rect class="cls-1" x="514" y="1.21" width="127" height="99.73"/><path class="cls-2" d="M689.5,300.71v98.74h-126V300.71h126m1-1h-128V400.45h128V299.71Z" transform="translate(-49 -299)"/><path class="cls-2" d="M177.5,401.45v48.37H51.5V401.45h126m1-1H50.5v50.37h128V400.45Z" transform="translate(-49 -299)"/><path class="cls-2" d="M305.5,401.45v48.37h-126V401.45h126m1-1h-128v50.37h128V400.45Z" transform="translate(-49 -299)"/><path class="cls-2" d="M433.5,401.45v48.37h-126V401.45h126m1-1h-128v50.37h128V400.45Z" transform="translate(-49 -299)"/><path class="cls-2" d="M561.5,401.45v48.37h-126V401.45h126m1-1h-128v50.37h128V400.45Z" transform="translate(-49 -299)"/><path class="cls-2" d="M689.5,401.45v48.37h-126V401.45h126m1-1h-128v50.37h128V400.45Z" transform="translate(-49 -299)"/><path class="cls-2" d="M177.5,451.82v48.36H51.5V451.82h126m1-1H50.5v50.36h128V450.82Z" transform="translate(-49 -299)"/><path class="cls-2" d="M305.5,451.82v48.36h-126V451.82h126m1-1h-128v50.36h128V450.82Z" transform="translate(-49 -299)"/><path class="cls-2" d="M433.5,451.82v48.36h-126V451.82h126m1-1h-128v50.36h128V450.82Z" transform="translate(-49 -299)"/><path class="cls-2" d="M561.5,451.82v48.36h-126V451.82h126m1-1h-128v50.36h128V450.82Z" transform="translate(-49 -299)"/><path class="cls-2" d="M689.5,451.82v48.36h-126V451.82h126m1-1h-128v50.36h128V450.82Z" transform="translate(-49 -299)"/><path class="cls-2" d="M177.5,502.18v48.37H51.5V502.18h126m1-1H50.5v50.37h128V501.18Z" transform="translate(-49 -299)"/><path class="cls-2" d="M305.5,502.18v48.37h-126V502.18h126m1-1h-128v50.37h128V501.18Z" transform="translate(-49 -299)"/><path class="cls-2" d="M433.5,502.18v48.37h-126V502.18h126m1-1h-128v50.37h128V501.18Z" transform="translate(-49 -299)"/><path class="cls-2" d="M561.5,502.18v48.37h-126V502.18h126m1-1h-128v50.37h128V501.18Z" transform="translate(-49 -299)"/><path class="cls-2" d="M689.5,502.18v48.37h-126V502.18h126m1-1h-128v50.37h128V501.18Z" transform="translate(-49 -299)"/><path class="cls-2" d="M177.5,552.55v48.37H51.5V552.55h126m1-1H50.5v50.37h128V551.55Z" transform="translate(-49 -299)"/><path class="cls-2" d="M305.5,552.55v48.37h-126V552.55h126m1-1h-128v50.37h128V551.55Z" transform="translate(-49 -299)"/><path class="cls-2" d="M433.5,552.55v48.37h-126V552.55h126m1-1h-128v50.37h128V551.55Z" transform="translate(-49 -299)"/><path class="cls-2" d="M561.5,552.55v48.37h-126V552.55h126m1-1h-128v50.37h128V551.55Z" transform="translate(-49 -299)"/><path class="cls-2" d="M689.5,552.55v48.37h-126V552.55h126m1-1h-128v50.37h128V551.55Z" transform="translate(-49 -299)"/><path class="cls-2" d="M177.5,602.92v48.37H51.5V602.92h126m1-1H50.5v50.37h128V601.92Z" transform="translate(-49 -299)"/><path class="cls-2" d="M433.5,602.92v48.37h-254V602.92h254m1-1h-256v50.37h256V601.92Z" transform="translate(-49 -299)"/><path class="cls-2" d="M561.5,602.92v48.37h-126V602.92h126m1-1h-128v50.37h128V601.92Z" transform="translate(-49 -299)"/><path class="cls-2" d="M689.5,602.92v48.37h-126V602.92h126m1-1h-128v50.37h128V601.92Z" transform="translate(-49 -299)"/><path class="cls-2" d="M448,618.34v16.84h3.37v1.33h-8.52v-1.33h3.6V620a17.29,17.29,0,0,1-3.67,1.88l-.28-1.45a17.94,17.94,0,0,0,4.22-2.12Z" transform="translate(-49 -299)"/><path class="cls-2" d="M455.85,634v2.48l-1.36,3.41h-1.05l1.26-3.41h-1.35V634Z" transform="translate(-49 -299)"/><path class="cls-2" d="M462.7,618.29q5.32,0,5.32,9.18,0,9.38-5.38,9.37t-5.33-9.32Q457.31,618.28,462.7,618.29Zm0,1.38a3,3,0,0,0-2.9,2,15.48,15.48,0,0,0-.81,5.79q0,4.5,1,6.39a2.81,2.81,0,0,0,2.63,1.6,3,3,0,0,0,2.9-2.11,16,16,0,0,0,.81-5.86c0-3-.35-5.06-1-6.29A2.82,2.82,0,0,0,462.7,619.67Z" transform="translate(-49 -299)"/><path class="cls-2" d="M475,618.29q5.32,0,5.32,9.18,0,9.38-5.38,9.37t-5.33-9.32Q469.59,618.28,475,618.29Zm0,1.38a3,3,0,0,0-2.9,2,15.48,15.48,0,0,0-.81,5.79q0,4.5,1,6.39a2.82,2.82,0,0,0,2.63,1.6,3,3,0,0,0,2.9-2.11,16,16,0,0,0,.81-5.86c0-3-.35-5.06-1-6.29A2.82,2.82,0,0,0,475,619.67Z" transform="translate(-49 -299)"/><path class="cls-2" d="M487.26,618.29q5.33,0,5.32,9.18,0,9.38-5.38,9.37t-5.32-9.32Q481.88,618.28,487.26,618.29Zm0,1.38a3,3,0,0,0-2.89,2,15.24,15.24,0,0,0-.82,5.79q0,4.5,1,6.39a2.82,2.82,0,0,0,2.63,1.6,3,3,0,0,0,2.9-2.11,16,16,0,0,0,.81-5.86c0-3-.35-5.06-1-6.29A2.82,2.82,0,0,0,487.26,619.67Z" transform="translate(-49 -299)"/><path class="cls-2" d="M496.48,634v2.48l-1.36,3.41h-1.05l1.26-3.41H494V634Z" transform="translate(-49 -299)"/><path class="cls-2" d="M503.33,618.29q5.32,0,5.32,9.18,0,9.38-5.38,9.37t-5.33-9.32Q497.94,618.28,503.33,618.29Zm0,1.38a3,3,0,0,0-2.9,2,15.48,15.48,0,0,0-.81,5.79q0,4.5,1,6.39a2.81,2.81,0,0,0,2.63,1.6,3,3,0,0,0,2.9-2.11,16,16,0,0,0,.81-5.86c0-3-.35-5.06-1-6.29A2.82,2.82,0,0,0,503.33,619.67Z" transform="translate(-49 -299)"/><path class="cls-2" d="M515.61,618.29q5.32,0,5.32,9.18,0,9.38-5.38,9.37t-5.32-9.32Q510.23,618.28,515.61,618.29Zm0,1.38a3,3,0,0,0-2.89,2,15.24,15.24,0,0,0-.82,5.79q0,4.5,1,6.39a2.82,2.82,0,0,0,2.63,1.6,3,3,0,0,0,2.9-2.11,16,16,0,0,0,.81-5.86c0-3-.35-5.06-1-6.29A2.82,2.82,0,0,0,515.61,619.67Z" transform="translate(-49 -299)"/><path class="cls-2" d="M527.89,618.29q5.33,0,5.32,9.18,0,9.38-5.38,9.37t-5.32-9.32Q522.51,618.28,527.89,618.29Zm0,1.38a3,3,0,0,0-2.89,2,15.24,15.24,0,0,0-.82,5.79q0,4.5,1,6.39a2.79,2.79,0,0,0,2.62,1.6,3,3,0,0,0,2.9-2.11,16,16,0,0,0,.81-5.86c0-3-.35-5.06-1-6.29A2.82,2.82,0,0,0,527.89,619.67Z" transform="translate(-49 -299)"/><path class="cls-2" d="M553.35,628.06H537v5.8l0,4.42c0,.12,0,.19-.17.19h-.9c-.11,0-.17-.07-.17-.19l.05-4.61V623.13l-.05-4.65c0-.13.06-.19.17-.19l3.58.05h11.3l3.55-.05c.12,0,.17.06.17.19l0,4.7v9.23l0,3.87a1.8,1.8,0,0,1-.59,1.5,4.82,4.82,0,0,1-2.64.43h-.49a.76.76,0,0,1-.39-.06,2,2,0,0,1-.13-.34,3.32,3.32,0,0,0-.43-.89c.62.05,1.39.08,2.31.08a1.44,1.44,0,0,0,1-.22,1,1,0,0,0,.21-.72Zm-8.9-1v-7.61H537V627Zm1.12,0h7.78v-7.61h-7.78Z" transform="translate(-49 -299)"/><path class="cls-2" d="M576,618.34v16.84h3.37v1.33h-8.52v-1.33h3.6V620a17.29,17.29,0,0,1-3.67,1.88l-.28-1.45a17.94,17.94,0,0,0,4.22-2.12Z" transform="translate(-49 -299)"/><path class="cls-2" d="M583.85,634v2.48l-1.36,3.41h-1l1.26-3.41h-1.35V634Z" transform="translate(-49 -299)"/><path class="cls-2" d="M590.7,618.29q5.32,0,5.32,9.18,0,9.38-5.38,9.37t-5.33-9.32Q585.31,618.28,590.7,618.29Zm0,1.38a3,3,0,0,0-2.9,2,15.48,15.48,0,0,0-.81,5.79q0,4.5,1,6.39a2.81,2.81,0,0,0,2.63,1.6,3,3,0,0,0,2.9-2.11,16,16,0,0,0,.81-5.86c0-3-.35-5.06-1-6.29A2.82,2.82,0,0,0,590.7,619.67Z" transform="translate(-49 -299)"/><path class="cls-2" d="M603,618.29q5.32,0,5.32,9.18,0,9.38-5.38,9.37t-5.33-9.32Q597.59,618.28,603,618.29Zm0,1.38a3,3,0,0,0-2.9,2,15.48,15.48,0,0,0-.81,5.79q0,4.5,1,6.39a2.82,2.82,0,0,0,2.63,1.6,3,3,0,0,0,2.9-2.11,16,16,0,0,0,.81-5.86c0-3-.35-5.06-1-6.29A2.82,2.82,0,0,0,603,619.67Z" transform="translate(-49 -299)"/><path class="cls-2" d="M615.26,618.29q5.32,0,5.32,9.18,0,9.38-5.38,9.37t-5.32-9.32Q609.88,618.28,615.26,618.29Zm0,1.38a3,3,0,0,0-2.89,2,15.24,15.24,0,0,0-.82,5.79q0,4.5,1,6.39a2.82,2.82,0,0,0,2.63,1.6,3,3,0,0,0,2.9-2.11,16,16,0,0,0,.81-5.86c0-3-.35-5.06-1-6.29A2.82,2.82,0,0,0,615.26,619.67Z" transform="translate(-49 -299)"/><path class="cls-2" d="M624.48,634v2.48l-1.36,3.41h-1l1.26-3.41H622V634Z" transform="translate(-49 -299)"/><path class="cls-2" d="M631.33,618.29q5.32,0,5.32,9.18,0,9.38-5.38,9.37t-5.33-9.32Q625.94,618.28,631.33,618.29Zm0,1.38a3,3,0,0,0-2.9,2,15.48,15.48,0,0,0-.81,5.79q0,4.5,1,6.39a2.81,2.81,0,0,0,2.63,1.6,3,3,0,0,0,2.9-2.11,16,16,0,0,0,.81-5.86c0-3-.35-5.06-1-6.29A2.82,2.82,0,0,0,631.33,619.67Z" transform="translate(-49 -299)"/><path class="cls-2" d="M643.61,618.29q5.32,0,5.32,9.18,0,9.38-5.38,9.37t-5.32-9.32Q638.23,618.28,643.61,618.29Zm0,1.38a3,3,0,0,0-2.89,2,15.24,15.24,0,0,0-.82,5.79q0,4.5,1,6.39a2.82,2.82,0,0,0,2.63,1.6,3,3,0,0,0,2.9-2.11,16,16,0,0,0,.81-5.86c0-3-.35-5.06-1-6.29A2.82,2.82,0,0,0,643.61,619.67Z" transform="translate(-49 -299)"/><path class="cls-2" d="M655.89,618.29q5.33,0,5.32,9.18,0,9.38-5.38,9.37t-5.32-9.32Q650.51,618.28,655.89,618.29Zm0,1.38a3,3,0,0,0-2.89,2,15.24,15.24,0,0,0-.82,5.79q0,4.5,1,6.39a2.79,2.79,0,0,0,2.62,1.6,3,3,0,0,0,2.9-2.11,16,16,0,0,0,.81-5.86c0-3-.35-5.06-1-6.29A2.82,2.82,0,0,0,655.89,619.67Z" transform="translate(-49 -299)"/><path class="cls-2" d="M681.35,628.06H665v5.8l0,4.42c0,.12,0,.19-.17.19h-.9c-.11,0-.17-.07-.17-.19l.05-4.61V623.13l-.05-4.65c0-.13.06-.19.17-.19l3.58.05h11.3l3.55-.05c.12,0,.17.06.17.19l0,4.7v9.23l0,3.87a1.8,1.8,0,0,1-.59,1.5,4.82,4.82,0,0,1-2.64.43h-.49a.76.76,0,0,1-.39-.06,2,2,0,0,1-.13-.34,3.32,3.32,0,0,0-.43-.89c.62.05,1.39.08,2.31.08a1.44,1.44,0,0,0,1-.22,1,1,0,0,0,.21-.72Zm-8.9-1v-7.61H665V627Zm1.12,0h7.78v-7.61h-7.78Z" transform="translate(-49 -299)"/><path class="cls-2" d="M254.08,618.34v16.84h3.37v1.33h-8.52v-1.33h3.6V620a17.14,17.14,0,0,1-3.68,1.88l-.28-1.45a17.81,17.81,0,0,0,4.23-2.12Z" transform="translate(-49 -299)"/><path class="cls-2" d="M262.59,634v2.48l-1.35,3.41h-1.05l1.25-3.41h-1.35V634Z" transform="translate(-49 -299)"/><path class="cls-2" d="M270.53,618.34v16.84h3.37v1.33h-8.52v-1.33H269V620a17.38,17.38,0,0,1-3.68,1.88l-.28-1.45a17.94,17.94,0,0,0,4.22-2.12Z" transform="translate(-49 -299)"/><path class="cls-2" d="M276.47,623a6,6,0,0,1,2.07-3.69,5.07,5.07,0,0,1,3.24-1,4.85,4.85,0,0,1,3.64,1.38,4.38,4.38,0,0,1,1.21,3.22,5.27,5.27,0,0,1-.87,2.94,17.93,17.93,0,0,1-2.9,3.13,19,19,0,0,0-5,6.17h8.75v1.38H276.33v-1.23a21,21,0,0,1,5.4-7.24,15.22,15.22,0,0,0,2.7-3,4.1,4.1,0,0,0,.55-2.11,3.12,3.12,0,0,0-1-2.48,3.26,3.26,0,0,0-2.21-.74q-3.08,0-3.71,3.74Z" transform="translate(-49 -299)"/><path class="cls-2" d="M294,618.29q5.33,0,5.32,9.18,0,9.38-5.38,9.37t-5.32-9.32Q288.63,618.28,294,618.29Zm0,1.38a3,3,0,0,0-2.89,2,15.24,15.24,0,0,0-.82,5.79q0,4.5,1,6.39a2.79,2.79,0,0,0,2.62,1.6,3,3,0,0,0,2.91-2.11,16.26,16.26,0,0,0,.8-5.86c0-3-.34-5.07-1-6.29A2.8,2.8,0,0,0,294,619.67Z" transform="translate(-49 -299)"/><path class="cls-2" d="M303.86,634v2.48l-1.35,3.41h-1.05l1.25-3.41h-1.35V634Z" transform="translate(-49 -299)"/><path class="cls-2" d="M311.33,618.29q5.32,0,5.33,9.18,0,9.38-5.39,9.37T306,627.52Q306,618.28,311.33,618.29Zm0,1.38a3,3,0,0,0-2.89,2,15.44,15.44,0,0,0-.82,5.79q0,4.5,1,6.39a2.8,2.8,0,0,0,2.62,1.6,3,3,0,0,0,2.91-2.11,16.26,16.26,0,0,0,.8-5.86q0-4.46-1-6.29A2.82,2.82,0,0,0,311.33,619.67Z" transform="translate(-49 -299)"/><path class="cls-2" d="M324.24,618.29q5.33,0,5.32,9.18,0,9.38-5.38,9.37t-5.32-9.32Q318.86,618.28,324.24,618.29Zm0,1.38a3,3,0,0,0-2.89,2,15.24,15.24,0,0,0-.82,5.79q0,4.5,1,6.39a2.79,2.79,0,0,0,2.62,1.6,3,3,0,0,0,2.9-2.11,16,16,0,0,0,.81-5.86q0-4.46-1-6.29A2.8,2.8,0,0,0,324.24,619.67Z" transform="translate(-49 -299)"/><path class="cls-2" d="M337.15,618.29q5.33,0,5.32,9.18,0,9.38-5.38,9.37t-5.33-9.32Q331.76,618.28,337.15,618.29Zm0,1.38a3,3,0,0,0-2.9,2,15.48,15.48,0,0,0-.81,5.79q0,4.5,1,6.39a2.82,2.82,0,0,0,2.63,1.6,3,3,0,0,0,2.9-2.11,16,16,0,0,0,.81-5.86q0-4.46-1-6.29A2.82,2.82,0,0,0,337.15,619.67Z" transform="translate(-49 -299)"/><path class="cls-2" d="M363.23,628.06H346.85v5.8l0,4.42c0,.12-.06.19-.17.19h-.91c-.11,0-.17-.07-.17-.19l.05-4.61V623.13l-.05-4.65c0-.13.06-.19.17-.19l3.58.05h11.3l3.55-.05c.12,0,.18.06.18.19l-.05,4.7v9.23l.05,3.87a1.78,1.78,0,0,1-.6,1.5,4.82,4.82,0,0,1-2.64.43h-.49a.76.76,0,0,1-.39-.06,2.45,2.45,0,0,1-.13-.34,3.22,3.22,0,0,0-.43-.9q.93.09,2.31.09a1.43,1.43,0,0,0,1-.22,1,1,0,0,0,.21-.72Zm-8.9-1v-7.6h-7.48V627Zm1.12,0h7.78v-7.6h-7.78Z" transform="translate(-49 -299)"/><path class="cls-2" d="M74.92,631.19H68l-3.3,0a.15.15,0,0,1-.17-.17v-.83a.15.15,0,0,1,.17-.17l3.3,0h6.9a13.21,13.21,0,0,0-.17-2.6q.63.13,1.17.3a22.9,22.9,0,0,0,3.63-2.48H72.37l-3.25,0c-.12,0-.18,0-.18-.17v-.78c0-.11.06-.17.18-.17l3.25.05h7.07a3,3,0,0,0,.66-.05.93.93,0,0,1,.24,0q.18,0,.6.45a1.19,1.19,0,0,1,.4.67.28.28,0,0,1-.22.29,3.29,3.29,0,0,0-1,.59,28.64,28.64,0,0,1-4,2.47,6,6,0,0,0,0,1v.45h6.8l3.3,0c.12,0,.18.06.18.17v.83c0,.11-.06.17-.18.17l-3.3,0h-6.8v2.93l0,2.15a1.69,1.69,0,0,1-.62,1.48,4.59,4.59,0,0,1-2.08.38c-.51,0-.94,0-1.27,0a1.35,1.35,0,0,1-.38-.06s-.08-.13-.12-.32a3.78,3.78,0,0,0-.43-.9,21.16,21.16,0,0,0,2.55.16,1.46,1.46,0,0,0,.9-.22,1,1,0,0,0,.25-.78Zm4.53-10.47a21.27,21.27,0,0,0,1.8-3.25,5.22,5.22,0,0,0,.28-1.1,6.39,6.39,0,0,1,1.14.45c.17.09.25.19.25.3a.33.33,0,0,1-.15.25,1.53,1.53,0,0,0-.48.58c-.42.81-1,1.73-1.64,2.77h1.17l3.5-.05c.13,0,.2.05.2.15l0,1.18v1l0,2.63c0,.11-.07.17-.2.17h-.83a.15.15,0,0,1-.17-.17v-3.91H66.65v3.91c0,.11-.06.17-.18.17h-.85a.15.15,0,0,1-.17-.17l0-2.63v-.85l0-1.33c0-.1.06-.15.17-.15l3.5.05ZM69,616.64a19.56,19.56,0,0,1,2,2.83.27.27,0,0,1,.06.14s-.08.14-.25.24l-.36.17a1,1,0,0,1-.34.14s-.09,0-.13-.14a15.32,15.32,0,0,0-1.93-2.9.23.23,0,0,1,0-.1s.09-.11.28-.2l.35-.18a.72.72,0,0,1,.27-.08A.19.19,0,0,1,69,616.64Zm4.88,0a.42.42,0,0,1-.05-.12c0-.06.08-.12.25-.2l.38-.14a.59.59,0,0,1,.22-.08s.1,0,.15.13a15.14,15.14,0,0,1,1.63,2.94.3.3,0,0,1,0,.11c0,.05-.1.12-.31.22l-.34.14a1.13,1.13,0,0,1-.33.11c-.07,0-.12,0-.15-.16A14.27,14.27,0,0,0,73.87,616.64Z" transform="translate(-49 -299)"/><path class="cls-2" d="M103.21,620.82v4.43h3.13l3.5,0c.1,0,.15,0,.15.17v.8q0,.18-.15.18l-3.5-.05h-3.13v5h5.73l3.32,0c.12,0,.18.06.18.17v.83a.16.16,0,0,1-.18.18l-3.32,0h-5.73v1.82l.05,4.15c0,.1-.05.15-.14.15h-.93c-.13,0-.2-.05-.2-.15l.05-4.15v-1.82H94.38l-3.33,0c-.11,0-.17-.06-.17-.18v-.83a.15.15,0,0,1,.17-.17l3.33,0h.8v-3.73l-.05-2.15a.15.15,0,0,1,.17-.17l3.53,0H102v-4.43H96.16a27.49,27.49,0,0,1-3.27,4c-.14.15-.24.22-.29.22s-.13-.08-.26-.25a2.16,2.16,0,0,0-.69-.45,20.53,20.53,0,0,0,5-6.75,6.68,6.68,0,0,0,.5-1.57,6.92,6.92,0,0,1,1.26.45.26.26,0,0,1,.2.27.41.41,0,0,1-.2.3,2.44,2.44,0,0,0-.63.91c-.28.57-.61,1.18-1,1.82h10.61l3.5,0a.15.15,0,0,1,.17.17v.8a.15.15,0,0,1-.17.17l-3.5,0ZM102,631.25v-5H96.33v5Z" transform="translate(-49 -299)"/><path class="cls-2" d="M127.56,616.68a23.68,23.68,0,0,0,11.37,8.81,3,3,0,0,0-.6.71c-.11.2-.2.3-.28.3a.86.86,0,0,1-.31-.11A24,24,0,0,1,127,617.54a27,27,0,0,1-10.38,9,1,1,0,0,1-.3.12q-.11,0-.27-.27a2.77,2.77,0,0,0-.65-.62,25,25,0,0,0,6.69-4.27,20.1,20.1,0,0,0,3.78-4.46,4.31,4.31,0,0,0,.6-1.29,11.14,11.14,0,0,1,1.2.24c.2.07.3.15.3.26a.24.24,0,0,1-.14.24l-.14.1Zm-6.19,20.21v1.2a.15.15,0,0,1-.17.16h-.88c-.12,0-.17-.06-.17-.16l0-4.3v-2l0-2.72c0-.12,0-.17.17-.17l3.45.05h6.67l3.43-.05c.13,0,.19.05.19.17l-.05,2.4v2.22l.05,4.28c0,.11-.06.17-.19.17H133a.15.15,0,0,1-.17-.17v-1.08Zm0-1h11.47V630H121.37Zm3.69-11.5h4l3,0a.15.15,0,0,1,.17.17v.81a.15.15,0,0,1-.17.17l-3-.05h-4l-3,.05a.15.15,0,0,1-.17-.17v-.81a.15.15,0,0,1,.17-.17Z" transform="translate(-49 -299)"/><path class="cls-2" d="M149,621.9H145l-2.88.05c-.1,0-.14-.06-.14-.19V621a.12.12,0,0,1,.14-.14l2.88,0H149l2.88,0c.12,0,.17,0,.17.14v.79c0,.13-.05.19-.17.19Zm-.45-3.45H146l-2.38,0a.15.15,0,0,1-.17-.17v-.76a.15.15,0,0,1,.17-.17l2.38.05h2.52l2.35-.05c.13,0,.2.05.2.17v.76c0,.11-.07.17-.2.17Zm-3.87,18.34v1.51c0,.09-.06.14-.17.14h-.81c-.11,0-.17-.05-.17-.14l.05-3.65v-1.48l-.05-2.13a.15.15,0,0,1,.17-.17l2.33,0h2.3l2.33,0a.15.15,0,0,1,.17.17l-.05,1.76v1.54l.05,3.48a.15.15,0,0,1-.17.17h-.8c-.12,0-.18-.06-.18-.17v-1Zm3.55-11.57H146l-2.17,0c-.12,0-.18-.06-.18-.17v-.73c0-.12.06-.17.18-.17l2.17,0h2.15l2.15,0c.13,0,.19,0,.19.17v.73c0,.11-.06.17-.19.17Zm-4.5,3.27v-.74a.16.16,0,0,1,.18-.18l2.17.06h2.15l2.15-.06c.13,0,.19.06.19.18v.74c0,.1-.06.15-.19.15l-2.15,0H146l-2.17,0Q143.68,628.64,143.68,628.49Zm.95,7.35h5v-4h-5Zm12.9-11.22v-5.29a21.62,21.62,0,0,0-.17-3.31c.42,0,.86.06,1.34.12.17,0,.25.1.25.21a2,2,0,0,1-.1.42,12.31,12.31,0,0,0-.15,2.5v5.35H161l3.31,0c.12,0,.17.06.17.19v.83a.15.15,0,0,1-.17.17l-3.31,0H158.7v8.07l.05,4.43c0,.12-.05.17-.17.17h-.93a.15.15,0,0,1-.17-.17l.05-4.4v-8.1h-2.1l-3.29,0c-.12,0-.19-.06-.19-.17v-.83a.17.17,0,0,1,.19-.19l3.29,0Z" transform="translate(-49 -299)"/><path class="cls-2" d="M330,570.26l-1.5.74a2.69,2.69,0,0,0-2.63-1.73q-4.2,0-4.34,8.17a4.94,4.94,0,0,1,4.24-2.72,4.12,4.12,0,0,1,3.47,1.73,6.35,6.35,0,0,1,1.14,3.9,6.51,6.51,0,0,1-1.63,4.7,4.7,4.7,0,0,1-7.43-.91,11.44,11.44,0,0,1-1.34-6c0-3.66.6-6.35,1.82-8.07a4.77,4.77,0,0,1,4.12-2.11A4.31,4.31,0,0,1,330,570.26ZM321.58,579a8,8,0,0,0,1.23,4.82,3.06,3.06,0,0,0,2.54,1.28,2.93,2.93,0,0,0,2.6-1.39,6.14,6.14,0,0,0,.8-3.36,4.87,4.87,0,0,0-1-3.28,2.8,2.8,0,0,0-2.23-1Q323.19,576.1,321.58,579Z" transform="translate(-49 -299)"/><path class="cls-2" d="M337.71,567.92q5.32,0,5.32,9.18,0,9.38-5.38,9.37t-5.32-9.32Q332.33,567.92,337.71,567.92Zm0,1.38a3,3,0,0,0-2.89,2,15.27,15.27,0,0,0-.82,5.79q0,4.5,1,6.4a2.82,2.82,0,0,0,2.63,1.59,3,3,0,0,0,2.9-2.11,16,16,0,0,0,.81-5.86q0-4.46-1-6.28A2.81,2.81,0,0,0,337.71,569.3Z" transform="translate(-49 -299)"/><path class="cls-2" d="M350.62,567.92q5.31,0,5.32,9.18,0,9.38-5.38,9.37t-5.33-9.32Q345.23,567.92,350.62,567.92Zm0,1.38a3,3,0,0,0-2.9,2,15.51,15.51,0,0,0-.81,5.79q0,4.5,1,6.4a2.81,2.81,0,0,0,2.63,1.59,3,3,0,0,0,2.9-2.11,16,16,0,0,0,.81-5.86q0-4.46-1-6.28A2.81,2.81,0,0,0,350.62,569.3Z" transform="translate(-49 -299)"/><path class="cls-2" d="M360.46,583.67v2.47l-1.36,3.41h-1l1.25-3.41H358v-2.47Z" transform="translate(-49 -299)"/><path class="cls-2" d="M367.93,567.92q5.32,0,5.32,9.18,0,9.38-5.38,9.37t-5.32-9.32Q362.55,567.92,367.93,567.92Zm0,1.38a3,3,0,0,0-2.89,2,15.27,15.27,0,0,0-.82,5.79q0,4.5,1,6.4a2.8,2.8,0,0,0,2.62,1.59,3,3,0,0,0,2.91-2.11,16.23,16.23,0,0,0,.8-5.86c0-3-.34-5.06-1-6.28A2.79,2.79,0,0,0,367.93,569.3Z" transform="translate(-49 -299)"/><path class="cls-2" d="M380.84,567.92q5.32,0,5.32,9.18,0,9.38-5.38,9.37t-5.32-9.32Q375.46,567.92,380.84,567.92Zm0,1.38a3,3,0,0,0-2.89,2,15.27,15.27,0,0,0-.82,5.79q0,4.5,1,6.4a2.82,2.82,0,0,0,2.63,1.59,3,3,0,0,0,2.9-2.11,16,16,0,0,0,.81-5.86q0-4.46-1-6.28A2.81,2.81,0,0,0,380.84,569.3Z" transform="translate(-49 -299)"/><path class="cls-2" d="M393.75,567.92q5.31,0,5.32,9.18,0,9.38-5.39,9.37t-5.32-9.32Q388.36,567.92,393.75,567.92Zm0,1.38a3,3,0,0,0-2.9,2,15.48,15.48,0,0,0-.82,5.79c0,3,.35,5.13,1,6.4a2.81,2.81,0,0,0,2.62,1.59,3,3,0,0,0,2.91-2.11,16,16,0,0,0,.81-5.86q0-4.46-1-6.28A2.81,2.81,0,0,0,393.75,569.3Z" transform="translate(-49 -299)"/><path class="cls-2" d="M419.83,577.7H403.45v5.8l0,4.41c0,.13-.05.19-.17.19h-.9c-.11,0-.17-.06-.17-.19l.05-4.61V572.77l-.05-4.66c0-.13.06-.19.17-.19L406,568h11.3l3.55-.05c.12,0,.17.06.17.19l0,4.7V582l0,3.87a1.8,1.8,0,0,1-.59,1.5,4.82,4.82,0,0,1-2.64.43h-.49a.76.76,0,0,1-.39-.06,1.36,1.36,0,0,1-.13-.34,3.47,3.47,0,0,0-.43-.89c.62.05,1.39.08,2.31.08a1.46,1.46,0,0,0,1-.22,1,1,0,0,0,.21-.72Zm-8.9-1.05V569h-7.48v7.61Zm1.12,0h7.78V569h-7.78Z" transform="translate(-49 -299)"/><path class="cls-2" d="M458,570.26l-1.5.74a2.69,2.69,0,0,0-2.63-1.73q-4.2,0-4.34,8.17a4.94,4.94,0,0,1,4.24-2.72,4.12,4.12,0,0,1,3.47,1.73,6.35,6.35,0,0,1,1.14,3.9,6.55,6.55,0,0,1-1.63,4.7,4.7,4.7,0,0,1-7.43-.91,11.44,11.44,0,0,1-1.34-6q0-5.49,1.81-8.07a4.8,4.8,0,0,1,4.13-2.11A4.31,4.31,0,0,1,458,570.26ZM449.58,579a8,8,0,0,0,1.23,4.82,3.06,3.06,0,0,0,2.54,1.28,2.94,2.94,0,0,0,2.6-1.39,6.14,6.14,0,0,0,.8-3.36,4.87,4.87,0,0,0-1-3.28,2.8,2.8,0,0,0-2.23-1Q451.19,576.1,449.58,579Z" transform="translate(-49 -299)"/><path class="cls-2" d="M465.71,567.92q5.32,0,5.32,9.18,0,9.38-5.38,9.37t-5.32-9.32Q460.33,567.92,465.71,567.92Zm0,1.38a3,3,0,0,0-2.89,2,15.27,15.27,0,0,0-.82,5.79q0,4.5,1,6.4a2.82,2.82,0,0,0,2.63,1.59,3,3,0,0,0,2.9-2.11,16,16,0,0,0,.81-5.86q0-4.46-1-6.28A2.81,2.81,0,0,0,465.71,569.3Z" transform="translate(-49 -299)"/><path class="cls-2" d="M478.62,567.92q5.31,0,5.32,9.18,0,9.38-5.39,9.37t-5.32-9.32Q473.23,567.92,478.62,567.92Zm0,1.38a3,3,0,0,0-2.9,2,15.51,15.51,0,0,0-.81,5.79q0,4.5,1,6.4a2.81,2.81,0,0,0,2.62,1.59,3,3,0,0,0,2.91-2.11,16,16,0,0,0,.81-5.86q0-4.46-1-6.28A2.81,2.81,0,0,0,478.62,569.3Z" transform="translate(-49 -299)"/><path class="cls-2" d="M488.46,583.67v2.47l-1.36,3.41h-1.05l1.26-3.41H486v-2.47Z" transform="translate(-49 -299)"/><path class="cls-2" d="M495.93,567.92q5.32,0,5.32,9.18,0,9.38-5.38,9.37t-5.32-9.32Q490.55,567.92,495.93,567.92Zm0,1.38a3,3,0,0,0-2.89,2,15.27,15.27,0,0,0-.82,5.79q0,4.5,1,6.4a2.8,2.8,0,0,0,2.62,1.59,3,3,0,0,0,2.91-2.11,16.23,16.23,0,0,0,.8-5.86c0-3-.34-5.06-1-6.28A2.79,2.79,0,0,0,495.93,569.3Z" transform="translate(-49 -299)"/><path class="cls-2" d="M508.84,567.92q5.32,0,5.32,9.18,0,9.38-5.38,9.37t-5.32-9.32Q503.46,567.92,508.84,567.92Zm0,1.38a3,3,0,0,0-2.89,2,15.27,15.27,0,0,0-.82,5.79q0,4.5,1,6.4a2.82,2.82,0,0,0,2.63,1.59,3,3,0,0,0,2.9-2.11,16,16,0,0,0,.81-5.86q0-4.46-1-6.28A2.81,2.81,0,0,0,508.84,569.3Z" transform="translate(-49 -299)"/><path class="cls-2" d="M521.75,567.92q5.31,0,5.32,9.18,0,9.38-5.39,9.37t-5.32-9.32Q516.36,567.92,521.75,567.92Zm0,1.38a3,3,0,0,0-2.9,2,15.48,15.48,0,0,0-.82,5.79c0,3,.35,5.13,1,6.4a2.81,2.81,0,0,0,2.62,1.59,3,3,0,0,0,2.91-2.11,16,16,0,0,0,.81-5.86q0-4.46-1-6.28A2.81,2.81,0,0,0,521.75,569.3Z" transform="translate(-49 -299)"/><path class="cls-2" d="M547.83,577.7H531.45v5.8l0,4.41c0,.13,0,.19-.17.19h-.9c-.11,0-.17-.06-.17-.19l0-4.61V572.77l0-4.66c0-.13.06-.19.17-.19L534,568h11.3l3.55-.05c.12,0,.17.06.17.19l0,4.7V582l0,3.87a1.8,1.8,0,0,1-.59,1.5,4.82,4.82,0,0,1-2.64.43h-.49a.76.76,0,0,1-.39-.06,1.36,1.36,0,0,1-.13-.34,3.47,3.47,0,0,0-.43-.89c.62.05,1.39.08,2.31.08a1.46,1.46,0,0,0,1-.22,1,1,0,0,0,.21-.72Zm-8.9-1.05V569h-7.48v7.61Zm1.12,0h7.78V569h-7.78Z" transform="translate(-49 -299)"/><path class="cls-2" d="M586,570.26l-1.5.74a2.69,2.69,0,0,0-2.63-1.73q-4.2,0-4.34,8.17a4.94,4.94,0,0,1,4.24-2.72,4.12,4.12,0,0,1,3.47,1.73,6.35,6.35,0,0,1,1.14,3.9,6.55,6.55,0,0,1-1.63,4.7,4.7,4.7,0,0,1-7.43-.91,11.44,11.44,0,0,1-1.34-6q0-5.49,1.81-8.07a4.8,4.8,0,0,1,4.13-2.11A4.31,4.31,0,0,1,586,570.26ZM577.58,579a8,8,0,0,0,1.23,4.82,3.06,3.06,0,0,0,2.54,1.28,2.94,2.94,0,0,0,2.6-1.39,6.14,6.14,0,0,0,.8-3.36,4.87,4.87,0,0,0-1-3.28,2.8,2.8,0,0,0-2.23-1Q579.19,576.1,577.58,579Z" transform="translate(-49 -299)"/><path class="cls-2" d="M593.71,567.92q5.32,0,5.32,9.18,0,9.38-5.38,9.37t-5.32-9.32Q588.33,567.92,593.71,567.92Zm0,1.38a3,3,0,0,0-2.89,2,15.27,15.27,0,0,0-.82,5.79q0,4.5,1,6.4a2.82,2.82,0,0,0,2.63,1.59,3,3,0,0,0,2.9-2.11,16,16,0,0,0,.81-5.86q0-4.46-1-6.28A2.81,2.81,0,0,0,593.71,569.3Z" transform="translate(-49 -299)"/><path class="cls-2" d="M606.62,567.92q5.31,0,5.32,9.18,0,9.38-5.39,9.37t-5.32-9.32Q601.23,567.92,606.62,567.92Zm0,1.38a3,3,0,0,0-2.9,2,15.51,15.51,0,0,0-.81,5.79q0,4.5,1,6.4a2.81,2.81,0,0,0,2.62,1.59,3,3,0,0,0,2.91-2.11,16,16,0,0,0,.81-5.86q0-4.46-1-6.28A2.81,2.81,0,0,0,606.62,569.3Z" transform="translate(-49 -299)"/><path class="cls-2" d="M616.46,583.67v2.47l-1.36,3.41h-1.05l1.26-3.41H614v-2.47Z" transform="translate(-49 -299)"/><path class="cls-2" d="M623.93,567.92q5.33,0,5.32,9.18,0,9.38-5.38,9.37t-5.32-9.32Q618.55,567.92,623.93,567.92Zm0,1.38a3,3,0,0,0-2.89,2,15.27,15.27,0,0,0-.82,5.79q0,4.5,1,6.4a2.8,2.8,0,0,0,2.62,1.59,3,3,0,0,0,2.91-2.11,16.23,16.23,0,0,0,.8-5.86c0-3-.34-5.06-1-6.28A2.79,2.79,0,0,0,623.93,569.3Z" transform="translate(-49 -299)"/><path class="cls-2" d="M636.84,567.92q5.32,0,5.32,9.18,0,9.38-5.38,9.37t-5.32-9.32Q631.46,567.92,636.84,567.92Zm0,1.38a3,3,0,0,0-2.89,2,15.27,15.27,0,0,0-.82,5.79q0,4.5,1,6.4a2.82,2.82,0,0,0,2.63,1.59,3,3,0,0,0,2.9-2.11,16,16,0,0,0,.81-5.86q0-4.46-1-6.28A2.81,2.81,0,0,0,636.84,569.3Z" transform="translate(-49 -299)"/><path class="cls-2" d="M649.75,567.92q5.31,0,5.32,9.18,0,9.38-5.39,9.37t-5.32-9.32Q644.36,567.92,649.75,567.92Zm0,1.38a3,3,0,0,0-2.9,2,15.48,15.48,0,0,0-.82,5.79c0,3,.35,5.13,1,6.4a2.81,2.81,0,0,0,2.62,1.59,3,3,0,0,0,2.91-2.11,16,16,0,0,0,.81-5.86q0-4.46-1-6.28A2.81,2.81,0,0,0,649.75,569.3Z" transform="translate(-49 -299)"/><path class="cls-2" d="M675.83,577.7H659.45v5.8l0,4.41c0,.13,0,.19-.17.19h-.9c-.11,0-.17-.06-.17-.19l0-4.61V572.77l0-4.66c0-.13.06-.19.17-.19L662,568h11.3l3.55-.05c.12,0,.17.06.17.19l0,4.7V582l0,3.87a1.8,1.8,0,0,1-.59,1.5,4.82,4.82,0,0,1-2.64.43h-.49a.76.76,0,0,1-.39-.06,1.36,1.36,0,0,1-.13-.34,3.47,3.47,0,0,0-.43-.89c.62.05,1.39.08,2.31.08a1.46,1.46,0,0,0,1-.22,1,1,0,0,0,.21-.72Zm-8.9-1.05V569h-7.48v7.61Zm1.12,0h7.78V569h-7.78Z" transform="translate(-49 -299)"/><path class="cls-2" d="M81.4,578.42V582l0,3.35a3.68,3.68,0,0,1-.16,1.28,1.44,1.44,0,0,1-.46.57,3.53,3.53,0,0,1-2,.4h-.39a.68.68,0,0,1-.39-.07,1.73,1.73,0,0,1-.16-.35,3,3,0,0,0-.39-.83,13.09,13.09,0,0,0,1.85.11.9.9,0,0,0,.79-.31,1.79,1.79,0,0,0,.18-.93V578.9c-.46.2-.92.4-1.38.57A3.9,3.9,0,0,0,78,580a.52.52,0,0,1-.3.17.28.28,0,0,1-.25-.17,10,10,0,0,1-.42-1.12,14.56,14.56,0,0,0,2.17-.62l.54-.22c.23-.09.42-.16.58-.24v-5.9h-.9l-2.12,0c-.1,0-.15,0-.15-.17v-.79q0-.18.15-.18l2.12,0h.9v-2.28a15.8,15.8,0,0,0-.17-2.88c.38,0,.82.07,1.3.14.18,0,.28.09.28.19a1.69,1.69,0,0,1-.16.48,8.61,8.61,0,0,0-.12,2v2.3l2.1,0c.11,0,.17.06.17.18v.79a.15.15,0,0,1-.17.17l-2.1,0v5.45l2.19-1a2.51,2.51,0,0,0-.06.55c0,.06,0,.13,0,.22s0,.19,0,.22-.1.24-.31.32C82.45,578,81.84,578.24,81.4,578.42Zm6.12.08-1.27,0c-.12,0-.18,0-.18-.17v-.76c0-.11.06-.17.18-.17l3.08.05h5.75a1.41,1.41,0,0,0,.57-.09.32.32,0,0,1,.15,0c.16,0,.35.13.6.4s.35.43.35.52-.07.18-.22.27a2,2,0,0,0-.63.86,13.79,13.79,0,0,1-3.22,4.25,20.73,20.73,0,0,0,7,3,1.72,1.72,0,0,0-.55.69c-.1.23-.22.35-.34.35a1.2,1.2,0,0,1-.32-.08,19.48,19.48,0,0,1-6.75-3.22,23.21,23.21,0,0,1-7.61,3.43,1.22,1.22,0,0,1-.27.06c-.09,0-.19-.11-.31-.33a1.68,1.68,0,0,0-.55-.68,23.25,23.25,0,0,0,7.9-3.22A15.4,15.4,0,0,1,87.52,578.5Zm6.71-5a22.79,22.79,0,0,0,1.85-3.8,6.69,6.69,0,0,0,.32-1.24,7.4,7.4,0,0,1,1.13.34.29.29,0,0,1,.18.26c0,.06-.06.15-.18.26a2.41,2.41,0,0,0-.33.5,31.41,31.41,0,0,1-1.83,3.68l3.51-.05a.15.15,0,0,1,.17.17l0,1v.81l0,2.32c0,.12-.06.18-.17.18h-.81c-.11,0-.17-.06-.17-.18v-3.25H85.4v3.25c0,.12-.06.18-.17.18h-.76c-.11,0-.17-.06-.17-.18l0-2.32v-.69l0-1.12a.15.15,0,0,1,.17-.17l3.53.05ZM96.88,566a7.55,7.55,0,0,1,.85.71.49.49,0,0,1,.17.31c0,.14-.12.21-.35.21a4,4,0,0,0-.82.1,81,81,0,0,1-11.1,1.32h-.19c-.19,0-.34-.13-.44-.4a1.87,1.87,0,0,0-.39-.64,62.08,62.08,0,0,0,11.09-1.19A3.46,3.46,0,0,0,96.88,566Zm-9.81,3.34a15.58,15.58,0,0,1,1.48,2.88.58.58,0,0,1,0,.13c0,.05-.1.12-.28.2l-.38.15a1,1,0,0,1-.27.09c-.06,0-.1-.06-.14-.16a11,11,0,0,0-1.35-2.86.25.25,0,0,1,0-.11c0-.05.09-.11.28-.18l.31-.16a.73.73,0,0,1,.22-.06A.21.21,0,0,1,87.07,569.29Zm1.58,9.18A12.16,12.16,0,0,0,91.83,583,11,11,0,0,0,95,578.47Zm1.88-9.14a.21.21,0,0,1,0-.11c0-.05.09-.1.26-.17l.38-.12.2-.06a.17.17,0,0,1,.13.08,13.69,13.69,0,0,1,1.19,2.92.36.36,0,0,1,0,.11c0,.06-.09.13-.25.19l-.38.15a1,1,0,0,1-.28.11s-.1,0-.12-.16A13,13,0,0,0,90.53,569.33Z" transform="translate(-49 -299)"/><path class="cls-2" d="M115.21,581.71l.12,6c0,.12-.06.18-.17.18h-.9c-.12,0-.17-.06-.17-.18l.12-6a17.26,17.26,0,0,1-4.42,3.25,33.11,33.11,0,0,1-5,2,1,1,0,0,1-.29.07c-.09,0-.19-.11-.31-.33a1.91,1.91,0,0,0-.57-.62,32.74,32.74,0,0,0,5.86-2.11,14.73,14.73,0,0,0,3.69-2.59h-5.52l-3.33,0a.15.15,0,0,1-.17-.17v-.74c0-.09,0-.14.17-.14l3.33,0h6.47v-2.22h-3.8l-3.57,0c-.12,0-.18,0-.18-.14v-.71c0-.11.06-.17.18-.17l3.57,0h3.8v-2.15h-5l-3.5,0c-.12,0-.18-.06-.18-.17v-.71c0-.11.06-.17.18-.17l3.5,0h2.2a9.62,9.62,0,0,0-1.19-2.36.24.24,0,0,1,0-.12c0-.06.07-.12.23-.17l.4-.15a.81.81,0,0,1,.23-.07.14.14,0,0,1,.11.08,10.38,10.38,0,0,1,1.41,2.79h4.77a12.36,12.36,0,0,0,1-2,5.08,5.08,0,0,0,.31-1c.42.12.76.23,1,.33s.26.15.26.25-.07.16-.22.28a1.42,1.42,0,0,0-.35.52,16.18,16.18,0,0,1-.93,1.58h2.35l3.5,0c.12,0,.18.06.18.17V575c0,.11-.06.17-.18.17l-3.5,0h-5.45v2.15h4.31l3.56,0c.12,0,.18.06.18.17v.71c0,.1-.06.14-.18.14l-3.56,0h-4.31v2.22h7l3.34,0c.12,0,.18,0,.18.14v.74c0,.11-.06.17-.18.17l-3.34,0h-6.08a19.37,19.37,0,0,0,4.58,2.81,30.69,30.69,0,0,0,5.34,1.69,2.27,2.27,0,0,0-.54.67c-.12.22-.22.33-.31.33a1,1,0,0,1-.29-.07A22.5,22.5,0,0,1,115.21,581.71Zm-3-11.78V568a9.71,9.71,0,0,0-.18-2.3c.48,0,.89.07,1.24.12.16,0,.24.1.24.21a.57.57,0,0,1-.1.32,5.11,5.11,0,0,0-.15,1.65v1.95h2.9V568a10.36,10.36,0,0,0-.17-2.29,9.13,9.13,0,0,1,1.24.12c.15,0,.22.1.22.2a.62.62,0,0,1-.09.32,5.08,5.08,0,0,0-.15,1.63v1.95h2.6a23.7,23.7,0,0,0,1.48-2.45,4.12,4.12,0,0,0,.38-1.1,6.59,6.59,0,0,1,1.09.4c.15.06.22.13.22.22a.37.37,0,0,1-.17.3,1.86,1.86,0,0,0-.42.5c-.74,1.1-1.22,1.81-1.46,2.13h1.31l3.34,0c.12,0,.18.07.18.2v.7c0,.12-.06.17-.18.17l-3.34,0H107.69l-3.33,0c-.12,0-.17-.05-.17-.17v-.7c0-.13,0-.2.17-.2l3.33,0Zm-4.45-3.36a13.22,13.22,0,0,1,1.86,2.55.35.35,0,0,1,0,.13s-.06.1-.19.18l-.38.22a.82.82,0,0,1-.3.14s-.08,0-.11-.12a11.4,11.4,0,0,0-1.76-2.57.18.18,0,0,1-.06-.1s.07-.11.22-.2l.39-.23a.39.39,0,0,1,.17-.07A.19.19,0,0,1,107.76,566.57Z" transform="translate(-49 -299)"/><path class="cls-2" d="M135.43,575.87q0,4.05.1,8.59,0,1.06.06,2.55c0,.46,0,.72,0,.76s0,.18-.17.18h-.88c-.11,0-.17-.06-.17-.18s0-.64,0-1.87c.08-3.63.13-7,.13-10a30.76,30.76,0,0,1-3.91,8c-.11.15-.19.22-.24.22s-.12-.08-.22-.24a1.5,1.5,0,0,0-.55-.61,25.12,25.12,0,0,0,2.67-4,33.61,33.61,0,0,0,1.8-4.22h-1l-2.67,0c-.12,0-.17,0-.17-.17v-.72c0-.12,0-.18.17-.18l2.67.06h1.41V568.4a15.55,15.55,0,0,0-.18-2.88c.44,0,.86.07,1.25.12q.3.06.3.21a2.65,2.65,0,0,1-.18.48,9.05,9.05,0,0,0-.12,2V574h.6l2.67-.06a.16.16,0,0,1,.18.18v.72c0,.12-.06.17-.18.17l-2.67,0h-.4a24.8,24.8,0,0,0,3.33,5,2.16,2.16,0,0,0-.53.67c-.09.17-.15.25-.19.25s-.11-.06-.21-.19A29.57,29.57,0,0,1,135.43,575.87Zm-4.77-7.8a.11.11,0,0,1,0-.07c0-.06.08-.12.24-.2l.33-.15a.8.8,0,0,1,.23-.09s.08,0,.12.12a21.06,21.06,0,0,1,1.6,4.28.2.2,0,0,1,0,.07c0,.06-.11.13-.34.22l-.29.12a1.62,1.62,0,0,1-.33.11c-.06,0-.09,0-.1-.13A17,17,0,0,0,130.66,568.07Zm5.94,4a20.18,20.18,0,0,0,1.48-3.77,5.59,5.59,0,0,0,.16-.93,6.29,6.29,0,0,1,1,.34c.17.09.26.18.26.26s-.06.15-.17.27a1.47,1.47,0,0,0-.31.56,34.15,34.15,0,0,1-1.35,3.32c-.09.19-.17.28-.23.28a.72.72,0,0,1-.27-.13A1.6,1.6,0,0,0,136.6,572.1Zm12.19,7.47c1.48-.29,2.44-.51,2.88-.64l.06,0c.06,0,.11.06.13.19l.15.8a.25.25,0,0,1,0,.08c0,.06-.05.1-.16.12l-.36.07-2.71.5v2.76l.05,4.32c0,.11-.06.17-.18.17h-.9a.15.15,0,0,1-.17-.17l0-4.3V580.9l-5.2,1.05-2.56.55-.54.14-.17,0-.09,0c-.06,0-.1-.06-.12-.16l-.17-.83a.28.28,0,0,1,0-.08c0-.06.05-.1.16-.12q1.86-.32,3.33-.6l5.37-1.07V569.15a23,23,0,0,0-.17-3.3,11.39,11.39,0,0,1,1.29.12c.18,0,.27.1.27.2a3.86,3.86,0,0,1-.1.43,13,13,0,0,0-.14,2.5Zm-8.23-5.34a.17.17,0,0,1-.1-.13.34.34,0,0,1,.12-.2l.36-.35c.08-.09.14-.13.19-.13a.21.21,0,0,1,.12.05,15.65,15.65,0,0,1,3.58,3,.21.21,0,0,1,.07.14.44.44,0,0,1-.14.24l-.31.35c-.13.15-.22.22-.27.22a.19.19,0,0,1-.12-.07A17.87,17.87,0,0,0,140.56,574.23Zm.67-5.49c-.06,0-.08-.06-.08-.09s.06-.14.18-.27l.3-.31c.08-.09.15-.14.21-.14a.19.19,0,0,1,.12.05,16,16,0,0,1,3.52,3,.16.16,0,0,1,.07.11s-.05.12-.15.21l-.31.37c-.16.17-.26.25-.29.25s-.07,0-.11-.1A15,15,0,0,0,141.23,568.74Z" transform="translate(-49 -299)"/><path class="cls-2" d="M448.15,471.91a6,6,0,0,1,2.06-3.69,5.1,5.1,0,0,1,3.25-1,4.82,4.82,0,0,1,3.63,1.38,4.42,4.42,0,0,1,1.21,3.23,5.39,5.39,0,0,1-.86,2.94,18.13,18.13,0,0,1-2.91,3.12,19.38,19.38,0,0,0-5,6.18h8.76v1.38H448v-1.23a20.79,20.79,0,0,1,5.41-7.24,15.42,15.42,0,0,0,2.69-3,4.13,4.13,0,0,0,.55-2.11,3.08,3.08,0,0,0-1-2.48,3.25,3.25,0,0,0-2.21-.75q-3.07,0-3.71,3.75Z" transform="translate(-49 -299)"/><path class="cls-2" d="M465.68,467.18q5.32,0,5.33,9.18,0,9.38-5.39,9.38t-5.32-9.33Q460.3,467.18,465.68,467.18Zm0,1.38a3,3,0,0,0-2.89,2,15.42,15.42,0,0,0-.82,5.78c0,3,.35,5.14,1,6.4a2.8,2.8,0,0,0,2.62,1.6,3,3,0,0,0,2.91-2.11,16,16,0,0,0,.8-5.86q0-4.45-1-6.29A2.83,2.83,0,0,0,465.68,468.56Z" transform="translate(-49 -299)"/><path class="cls-2" d="M478.59,467.18q5.32,0,5.32,9.18,0,9.38-5.38,9.38t-5.32-9.33Q473.21,467.18,478.59,467.18Zm0,1.38a3,3,0,0,0-2.89,2,15.21,15.21,0,0,0-.82,5.78q0,4.51,1,6.4a2.79,2.79,0,0,0,2.62,1.6,3,3,0,0,0,2.91-2.11,16.26,16.26,0,0,0,.8-5.86c0-3-.34-5.07-1-6.29A2.82,2.82,0,0,0,478.59,468.56Z" transform="translate(-49 -299)"/><path class="cls-2" d="M488.44,482.93v2.48l-1.36,3.41H486l1.26-3.41h-1.36v-2.48Z" transform="translate(-49 -299)"/><path class="cls-2" d="M495.91,467.18q5.32,0,5.32,9.18,0,9.38-5.38,9.38t-5.33-9.33Q490.52,467.18,495.91,467.18Zm0,1.38a3,3,0,0,0-2.9,2,15.45,15.45,0,0,0-.81,5.78q0,4.51,1,6.4a2.81,2.81,0,0,0,2.63,1.6,3,3,0,0,0,2.9-2.11,16,16,0,0,0,.81-5.86q0-4.45-1-6.29A2.83,2.83,0,0,0,495.91,468.56Z" transform="translate(-49 -299)"/><path class="cls-2" d="M508.81,467.18q5.32,0,5.33,9.18,0,9.38-5.39,9.38t-5.32-9.33Q503.43,467.18,508.81,467.18Zm0,1.38a3,3,0,0,0-2.89,2,15.42,15.42,0,0,0-.82,5.78c0,3,.35,5.14,1,6.4a2.8,2.8,0,0,0,2.62,1.6,3,3,0,0,0,2.91-2.11,16,16,0,0,0,.8-5.86q0-4.45-1-6.29A2.83,2.83,0,0,0,508.81,468.56Z" transform="translate(-49 -299)"/><path class="cls-2" d="M521.72,467.18q5.32,0,5.32,9.18,0,9.38-5.38,9.38t-5.32-9.33Q516.34,467.18,521.72,467.18Zm0,1.38a3,3,0,0,0-2.89,2,15.21,15.21,0,0,0-.82,5.78q0,4.51,1,6.4a2.79,2.79,0,0,0,2.62,1.6,3,3,0,0,0,2.91-2.11,16.26,16.26,0,0,0,.8-5.86c0-3-.34-5.07-1-6.29A2.81,2.81,0,0,0,521.72,468.56Z" transform="translate(-49 -299)"/><path class="cls-2" d="M547.8,477H531.42v5.8l.05,4.42c0,.12-.06.18-.17.18h-.9c-.12,0-.17-.06-.17-.18l0-4.61V472l0-4.65c0-.13,0-.2.17-.2l3.57.05h11.31l3.55-.05c.11,0,.17.07.17.2l0,4.7v9.23l0,3.87a1.78,1.78,0,0,1-.6,1.5,4.85,4.85,0,0,1-2.63.43h-.49c-.21,0-.34,0-.39-.07a1.43,1.43,0,0,1-.14-.34,3.3,3.3,0,0,0-.43-.89q.93.09,2.31.09a1.54,1.54,0,0,0,1-.22,1,1,0,0,0,.2-.72Zm-8.9-1v-7.6h-7.48v7.6Zm1.13,0h7.77v-7.6H540Z" transform="translate(-49 -299)"/><path class="cls-2" d="M64.06,521.36H64l-2.43,0a.13.13,0,0,1-.15-.15v-.69c0-.08,0-.13.15-.13l2.46.05h1.63V518.9a11.72,11.72,0,0,0-.15-2.31,11.26,11.26,0,0,1,1.14.1c.16,0,.24.08.24.18a1.56,1.56,0,0,1-.12.39,6.12,6.12,0,0,0-.12,1.64v1.58h.44l2.44-.05c.1,0,.16.05.16.13v.69a.14.14,0,0,1-.16.15l-2.46,0H65c0,.19,0,.77-.06,1.73,0,.6,0,1.11-.06,1.5h2.18l1.38,0a.15.15,0,0,1,.17.17c0,.28,0,.69,0,1.22s0,1.16,0,1.49a33.59,33.59,0,0,1-.48,5.87,3.6,3.6,0,0,1-.7,1.77,1.72,1.72,0,0,1-1.31.5l-1.17-.05c-.15,0-.24,0-.27-.08a1.06,1.06,0,0,1-.08-.31,1.83,1.83,0,0,0-.24-.75,8.08,8.08,0,0,0,1.74.2.89.89,0,0,0,.86-.59,6.59,6.59,0,0,0,.3-1.32,52.28,52.28,0,0,0,.44-7.2H64.87a29.54,29.54,0,0,1-.84,6,13.57,13.57,0,0,1-1.91,4c-.1.14-.17.22-.23.22s-.14,0-.24-.16a1.54,1.54,0,0,0-.63-.44,12.33,12.33,0,0,0,2.51-5.76A54.15,54.15,0,0,0,64.06,521.36Zm8-1.17h5.83l2.67-.05a.13.13,0,0,1,.15.15V521a.13.13,0,0,1-.15.15l-2.67,0H71.56a16.21,16.21,0,0,1-2,2.85c-.11.13-.19.19-.23.19s-.13-.06-.25-.19a1.48,1.48,0,0,0-.53-.3,14.38,14.38,0,0,0,3.3-5.59,6.56,6.56,0,0,0,.28-1.5,5,5,0,0,1,1,.27c.13.06.2.13.2.22a.48.48,0,0,1-.13.27,2.17,2.17,0,0,0-.42.9A16.08,16.08,0,0,1,72,520.19Zm.11,7.24v5.05a8,8,0,0,0,.08,1.38.77.77,0,0,0,.29.49,6.65,6.65,0,0,0,2.79.34,22,22,0,0,0,2.85-.13,2.07,2.07,0,0,0,1-.38,1.79,1.79,0,0,0,.58-1,10,10,0,0,0,.17-1.91,2,2,0,0,0,.64.4c.19,0,.29.15.29.3s0,.11,0,.18a6.21,6.21,0,0,1-.41,2.12,2.61,2.61,0,0,1-.65.75c-.51.43-2,.65-4.51.65a14.6,14.6,0,0,1-2.42-.13,2.38,2.38,0,0,1-1-.42,2,2,0,0,1-.57-1.71v-5.65c-.84.28-1.36.46-1.55.54l-.12,0s-.08,0-.11-.12l-.17-.65a.11.11,0,0,1,0-.07c0-.05,0-.09.13-.1.43-.11,1-.28,1.84-.53v-1.12a21.76,21.76,0,0,0-.12-2.62,9,9,0,0,1,1,.11c.15,0,.22.07.22.15a1.15,1.15,0,0,1-.11.4,7.2,7.2,0,0,0-.11,1.72v1.09l2.49-.79v-1.18a14.89,14.89,0,0,0-.15-2.52,8.58,8.58,0,0,1,1,.12c.15,0,.22.08.22.17a2.7,2.7,0,0,1-.09.36,6.59,6.59,0,0,0-.13,1.49v1.28l1.72-.53c.73-.22,1.36-.42,1.89-.61l.42-.15.15,0h0c.08,0,.12,0,.12.16s0,.26,0,.47,0,.34,0,.45a25.92,25.92,0,0,1-.53,5,1.29,1.29,0,0,1-1.34,1c-.29,0-.68,0-1.18-.07-.13,0-.21,0-.23-.09a.84.84,0,0,1-.06-.29,1.74,1.74,0,0,0-.24-.67,6.15,6.15,0,0,0,1.52.19.68.68,0,0,0,.72-.57,25.54,25.54,0,0,0,.42-4.4l-3.37,1.06v2.88l0,2.51c0,.09,0,.13-.15.13h-.69c-.1,0-.15,0-.15-.13l0-2.51v-2.6Z" transform="translate(-49 -299)"/><path class="cls-2" d="M86,520.63h2.6l2.29,0a.13.13,0,0,1,.15.15v.69a.13.13,0,0,1-.15.15l-2.29,0H86l-2.29,0a.13.13,0,0,1-.15-.15v-.69a.13.13,0,0,1,.15-.15Zm.63-3h1.68l1.89,0c.1,0,.14.05.14.15v.67c0,.1,0,.15-.14.15l-1.89-.05H86.6l-1.9.05a.14.14,0,0,1-.16-.15v-.67a.14.14,0,0,1,.16-.15Zm-1.09,17V536a.13.13,0,0,1-.15.15h-.67a.13.13,0,0,1-.15-.15l0-3.21v-1.28l0-1.89a.13.13,0,0,1,.15-.15l1.85,0h1.59l1.87,0a.13.13,0,0,1,.15.15l0,1.55v1.37l0,3.06a.13.13,0,0,1-.15.15h-.67a.13.13,0,0,1-.15-.15v-.92Zm1.11-11.11h1.47l1.76,0a.13.13,0,0,1,.15.15v.65c0,.11,0,.16-.15.16l-1.76,0H86.62l-1.77,0c-.1,0-.15,0-.15-.16v-.65a.13.13,0,0,1,.15-.15Zm0,2.94h1.47l1.76,0a.13.13,0,0,1,.15.15v.67a.13.13,0,0,1-.15.15l-1.76,0H86.62l-1.77,0a.13.13,0,0,1-.15-.15v-.67a.13.13,0,0,1,.15-.15Zm-1.11,7.33h3.67v-3.49H85.51ZM93.3,527l-1,0H92c-.11,0-.15-.06-.15-.18v-.66c0-.1,0-.15.15-.15l2.66,0h5.26a1.33,1.33,0,0,0,.47-.06.43.43,0,0,1,.23-.07c.12,0,.27.12.46.36a.92.92,0,0,1,.31.5c0,.07,0,.15-.17.24a1.93,1.93,0,0,0-.46.71,16.22,16.22,0,0,1-3,4.33,17.79,17.79,0,0,0,5.45,3,2.38,2.38,0,0,0-.55.6c-.11.2-.2.3-.26.3a.72.72,0,0,1-.24-.09A20.32,20.32,0,0,1,97,532.75a16.57,16.57,0,0,1-5.32,3.32,1.11,1.11,0,0,1-.28.09c-.06,0-.15-.09-.25-.27a1.37,1.37,0,0,0-.54-.53,16.28,16.28,0,0,0,5.71-3.27A14.78,14.78,0,0,1,93.3,527Zm-2.13-2.46a5.67,5.67,0,0,0,2-2,7.11,7.11,0,0,0,.72-3.42l0-1.43a.13.13,0,0,1,.15-.15l1.75,0h1.58l1.78,0a.13.13,0,0,1,.15.15l0,1.87v2.31c0,.58.07.93.2,1a2,2,0,0,0,1.12.19c.64,0,1-.15,1.23-.46a3.47,3.47,0,0,0,.29-1.74s0-.14,0-.26a1.85,1.85,0,0,0,.58.37c.21.09.31.21.31.35a.72.72,0,0,1,0,.13,2.93,2.93,0,0,1-.65,2.06,2.88,2.88,0,0,1-1.89.46,3.37,3.37,0,0,1-1.57-.22q-.57-.35-.57-1.59v-3.69h-3.4a10.34,10.34,0,0,1-.69,4.19,5.5,5.5,0,0,1-1.83,2.21,1,1,0,0,1-.3.17s-.14-.06-.27-.19A1.43,1.43,0,0,0,91.17,524.5ZM94.24,527a13.05,13.05,0,0,0,2.8,4.47A13.38,13.38,0,0,0,100,527Z" transform="translate(-49 -299)"/><path class="cls-2" d="M108.13,520.63h2.6l2.29,0a.13.13,0,0,1,.15.15v.69a.13.13,0,0,1-.15.15l-2.29,0h-2.6l-2.29,0a.13.13,0,0,1-.15-.15v-.69a.13.13,0,0,1,.15-.15Zm.63-3h1.68l1.89,0c.1,0,.14.05.14.15v.67c0,.1,0,.15-.14.15l-1.89-.05h-1.68l-1.89.05c-.11,0-.17-.05-.17-.15v-.67c0-.1.06-.15.17-.15Zm-1.09,17V536a.13.13,0,0,1-.15.15h-.67a.13.13,0,0,1-.15-.15l0-3.21v-1.28l0-1.89a.13.13,0,0,1,.15-.15l1.85,0h1.59l1.87,0a.13.13,0,0,1,.15.15l0,1.55v1.37l0,3.06a.13.13,0,0,1-.15.15h-.66c-.11,0-.16,0-.16-.15v-.92Zm1.11-11.11h1.47l1.76,0a.13.13,0,0,1,.15.15v.65c0,.11,0,.16-.15.16l-1.76,0h-1.47l-1.76,0c-.1,0-.15,0-.15-.16v-.65a.13.13,0,0,1,.15-.15Zm0,2.94h1.47l1.76,0a.13.13,0,0,1,.15.15v.67a.13.13,0,0,1-.15.15l-1.76,0h-1.47l-1.76,0a.13.13,0,0,1-.15-.15v-.67a.13.13,0,0,1,.15-.15Zm-1.11,7.33h3.67v-3.49h-3.67Zm7.79-6.91-1,0h-.32q-.15,0-.15-.18v-.66a.13.13,0,0,1,.15-.15l2.66,0H122a1.33,1.33,0,0,0,.47-.06.43.43,0,0,1,.23-.07c.12,0,.27.12.46.36s.32.39.32.5-.06.15-.18.24a1.93,1.93,0,0,0-.46.71,16.22,16.22,0,0,1-3,4.33,17.79,17.79,0,0,0,5.45,3,2.14,2.14,0,0,0-.54.6q-.18.3-.27.3a.72.72,0,0,1-.24-.09,20.32,20.32,0,0,1-5.11-3.14,16.57,16.57,0,0,1-5.32,3.32,1.11,1.11,0,0,1-.28.09c-.06,0-.15-.09-.25-.27a1.37,1.37,0,0,0-.54-.53,16.28,16.28,0,0,0,5.71-3.27A14.78,14.78,0,0,1,115.46,527Zm-2.13-2.46a5.67,5.67,0,0,0,2-2,7.11,7.11,0,0,0,.72-3.42l0-1.43a.13.13,0,0,1,.15-.15l1.75,0h1.58l1.78,0a.13.13,0,0,1,.15.15l0,1.87v2.31c0,.58.07.93.2,1a2,2,0,0,0,1.12.19c.64,0,1-.15,1.24-.46a3.62,3.62,0,0,0,.28-1.74s0-.14,0-.26a1.85,1.85,0,0,0,.58.37c.21.09.31.21.31.35v.13a3,3,0,0,1-.66,2.06,2.88,2.88,0,0,1-1.89.46,3.4,3.4,0,0,1-1.57-.22q-.57-.35-.57-1.59v-3.69H117a10.34,10.34,0,0,1-.69,4.19,5.5,5.5,0,0,1-1.83,2.21,1,1,0,0,1-.3.17s-.14-.06-.27-.19A1.43,1.43,0,0,0,113.33,524.5ZM116.4,527a13.05,13.05,0,0,0,2.8,4.47,13.38,13.38,0,0,0,2.93-4.47Z" transform="translate(-49 -299)"/><path class="cls-2" d="M130.45,521.84v10.8l0,3.45c0,.1-.05.15-.16.15h-.76a.13.13,0,0,1-.15-.15l0-3.45V527c0-1.17,0-2.33.06-3.47a25.45,25.45,0,0,1-2.16,3c-.11.13-.19.19-.24.19s-.12-.06-.2-.19a1.18,1.18,0,0,0-.46-.5,23.74,23.74,0,0,0,4.62-8.08,6.36,6.36,0,0,0,.33-1.43,5.83,5.83,0,0,1,1,.4c.12.06.19.14.19.22a.35.35,0,0,1-.17.28,1.71,1.71,0,0,0-.44.8A36.88,36.88,0,0,1,130.45,521.84Zm3.62,1.47v2a30.6,30.6,0,0,1-.4,5.94,12.67,12.67,0,0,1-1.73,4.41c-.09.12-.15.19-.2.19s-.12,0-.22-.15a2.13,2.13,0,0,0-.6-.44,10.35,10.35,0,0,0,1.87-4.45,31.62,31.62,0,0,0,.31-5.45l0-2.84a.13.13,0,0,1,.15-.15l3.12,0h7.09l3.08,0a.14.14,0,0,1,.16.15v.66a.14.14,0,0,1-.16.15l-3.08,0Zm2.75-4.29v-.35a11.37,11.37,0,0,0-.13-1.95,9.2,9.2,0,0,1,1,.1c.15,0,.23.09.23.19a.5.5,0,0,1-.1.27,4.56,4.56,0,0,0-.11,1.37V519h3.5v-.41a10.63,10.63,0,0,0-.13-1.92,6.27,6.27,0,0,1,1.06.13c.13,0,.2.09.2.19a.45.45,0,0,1-.1.25,4.8,4.8,0,0,0-.1,1.35V519h1.07l3.11,0c.08,0,.13,0,.13.15v.67c0,.1,0,.15-.13.15l-3.11,0h-1.07l0,1.65c0,.1-.06.15-.17.15h-.69c-.11,0-.16-.05-.16-.15l.05-1.65h-3.5l0,1.67c0,.1,0,.15-.14.15h-.7c-.1,0-.14-.05-.14-.15l0-1.67h-.7L133,520a.13.13,0,0,1-.15-.15v-.67A.13.13,0,0,1,133,519l3.08,0ZM144.54,532h-3.65v.92l0,2.54a.13.13,0,0,1-.15.15h-.68a.14.14,0,0,1-.16-.15l.06-2.54V532h-3.44v1.43l0,2.6c0,.1,0,.15-.16.15h-.67c-.11,0-.16,0-.16-.15l0-2.56v-5.56l0-2.58c0-.1,0-.15.16-.15l2.77,0h4l2.77,0a.13.13,0,0,1,.15.15l0,2.6v2.9l0,3.56a1.55,1.55,0,0,1-.49,1.3,3.45,3.45,0,0,1-2,.38.69.69,0,0,1-.32,0,.49.49,0,0,1-.12-.28,1.56,1.56,0,0,0-.3-.7q.76.06,1.5.06c.53,0,.79-.28.79-.83Zm-8-3.78H140V526h-3.44Zm0,3H140V529h-3.44Zm8-3V526h-3.65v2.23Zm0,.79h-3.65v2.19h3.65Z" transform="translate(-49 -299)"/><path class="cls-2" d="M152.4,525.85a20.72,20.72,0,0,1-2.64.84l-.27.06c-.08,0-.18-.09-.28-.27a1.27,1.27,0,0,0-.42-.48q4.69-.82,6.14-3h-3.49l-.27.59c-.07.13-.14.2-.21.2l-.17,0-.28-.06q-.27-.07-.27-.15a.74.74,0,0,1,.07-.18,14.25,14.25,0,0,0,.77-1.92,5.26,5.26,0,0,0,.26-1.19c0-.12.06-.17.18-.17l3.13,0h1.24c.05-.32.09-.81.12-1.45h-2.22l-3.13,0c-.1,0-.15,0-.15-.13v-.51a.13.13,0,0,1,.15-.15l3.13,0H156v-.29a4.17,4.17,0,0,0-.12-1.16,7.26,7.26,0,0,1,1,.09c.18,0,.27.11.27.22a1.09,1.09,0,0,1-.11.26,1.69,1.69,0,0,0-.09.69v.19h3.69v0a5.53,5.53,0,0,0-.15-1.43,8.44,8.44,0,0,1,1,.08c.16,0,.24.09.24.2s0,.1-.1.29a2.23,2.23,0,0,0-.1.86v0h1.32l3.29,0c.08,0,.13.05.13.16l-.06,1.05v.51l.06,1.08c0,.1-.05.15-.13.15l-3.29,0h-1.32v1.43h3.21l3.13,0c.11,0,.16,0,.16.13a.09.09,0,0,1,0,0c0,.2,0,.38-.07.53a9.39,9.39,0,0,1-.37,1.65,1.28,1.28,0,0,1-.55.69,1.71,1.71,0,0,1-.84.16,5.41,5.41,0,0,1-1.07-.09l0,.58c0,.35,0,.88,0,1.58v3.27l0,2.14a.13.13,0,0,1-.15.15l-3.11,0h-6.17l-3.13,0a.13.13,0,0,1-.15-.15l0-2.2ZM149,535.44a16.94,16.94,0,0,0,5.2-1.55,2.56,2.56,0,0,0,.74-.57,5.42,5.42,0,0,1,.88.44c.14.1.2.18.2.25s-.07.15-.22.17a2,2,0,0,0-.64.25,17.43,17.43,0,0,1-5.22,1.8l-.23,0c-.09,0-.18-.09-.27-.26A1.81,1.81,0,0,0,149,535.44Zm2.71-13.2h3.63a7.76,7.76,0,0,0,.44-1.43h-3.66A13.92,13.92,0,0,1,151.72,522.24Zm1.63,3.78v1.49h10.73V526Zm0,2.22v1.54h10.73v-1.54Zm0,2.27v1.68h10.73v-1.68Zm.29-5.29h8.17l3.13,0a.41.41,0,0,1,0-.19,1.59,1.59,0,0,0-.21-.57,10.55,10.55,0,0,0,1.37.12.82.82,0,0,0,.49-.11.67.67,0,0,0,.17-.36,7.48,7.48,0,0,0,.22-1.1h-5.46c0,.42,0,.82,0,1.19s0,.37,0,.39-.05.15-.16.15h-.65c-.11,0-.16-.05-.16-.15s0-.1,0-.23q0-.66,0-1.35h-4.66A5.79,5.79,0,0,1,153.64,525.22Zm2.65-3h4.31v-1.43h-3.91A8.65,8.65,0,0,1,156.29,522.24Zm4.31-3.59h-3.71a10.53,10.53,0,0,1-.09,1.45h3.8Zm7.2,16.69a2,2,0,0,0-.47.59c-.09.17-.18.26-.27.26l-.25,0a15.77,15.77,0,0,1-5.67-2.2q-.09-.06-.09-.12c0-.05.06-.11.17-.18l.42-.25a.74.74,0,0,1,.22-.08.19.19,0,0,1,.11,0A14.84,14.84,0,0,0,167.8,535.34Zm-6.32-16.69v1.45h3.78v-1.45Z" transform="translate(-49 -299)"/><path class="cls-2" d="M448.15,522.28a6,6,0,0,1,2.06-3.69,5.1,5.1,0,0,1,3.25-1,4.82,4.82,0,0,1,3.63,1.38,4.39,4.39,0,0,1,1.21,3.22,5.4,5.4,0,0,1-.86,3,18.13,18.13,0,0,1-2.91,3.12,19.38,19.38,0,0,0-5,6.18h8.76v1.38H448v-1.24a20.85,20.85,0,0,1,5.41-7.23,15.71,15.71,0,0,0,2.69-3,4.14,4.14,0,0,0,.55-2.12,3.07,3.07,0,0,0-1-2.47,3.25,3.25,0,0,0-2.21-.75q-3.07,0-3.71,3.75Z" transform="translate(-49 -299)"/><path class="cls-2" d="M465.68,517.55q5.32,0,5.33,9.18,0,9.38-5.39,9.38t-5.32-9.33Q460.3,517.56,465.68,517.55Zm0,1.38a3,3,0,0,0-2.89,2,15.42,15.42,0,0,0-.82,5.78c0,3,.35,5.14,1,6.4a2.82,2.82,0,0,0,2.62,1.6,3,3,0,0,0,2.91-2.11,16,16,0,0,0,.8-5.86q0-4.46-1-6.29A2.82,2.82,0,0,0,465.68,518.93Z" transform="translate(-49 -299)"/><path class="cls-2" d="M478.59,517.55q5.32,0,5.32,9.18,0,9.38-5.38,9.38t-5.32-9.33Q473.21,517.56,478.59,517.55Zm0,1.38a3,3,0,0,0-2.89,2,15.21,15.21,0,0,0-.82,5.78c0,3,.34,5.14,1,6.4a2.81,2.81,0,0,0,2.62,1.6,3,3,0,0,0,2.91-2.11,16.26,16.26,0,0,0,.8-5.86c0-3-.34-5.07-1-6.29A2.8,2.8,0,0,0,478.59,518.93Z" transform="translate(-49 -299)"/><path class="cls-2" d="M488.44,533.3v2.48l-1.36,3.4H486l1.26-3.4h-1.36V533.3Z" transform="translate(-49 -299)"/><path class="cls-2" d="M495.91,517.55q5.32,0,5.32,9.18,0,9.38-5.38,9.38t-5.33-9.33Q490.52,517.56,495.91,517.55Zm0,1.38a3,3,0,0,0-2.9,2,15.45,15.45,0,0,0-.81,5.78c0,3,.34,5.14,1,6.4a2.82,2.82,0,0,0,2.63,1.6,3,3,0,0,0,2.9-2.11,16,16,0,0,0,.81-5.86q0-4.46-1-6.29A2.81,2.81,0,0,0,495.91,518.93Z" transform="translate(-49 -299)"/><path class="cls-2" d="M508.81,517.55q5.32,0,5.33,9.18,0,9.38-5.39,9.38t-5.32-9.33Q503.43,517.56,508.81,517.55Zm0,1.38a3,3,0,0,0-2.89,2,15.42,15.42,0,0,0-.82,5.78c0,3,.35,5.14,1,6.4a2.82,2.82,0,0,0,2.62,1.6,3,3,0,0,0,2.91-2.11,16,16,0,0,0,.8-5.86q0-4.46-1-6.29A2.82,2.82,0,0,0,508.81,518.93Z" transform="translate(-49 -299)"/><path class="cls-2" d="M521.72,517.55q5.32,0,5.32,9.18,0,9.38-5.38,9.38t-5.32-9.33Q516.34,517.56,521.72,517.55Zm0,1.38a3,3,0,0,0-2.89,2,15.21,15.21,0,0,0-.82,5.78c0,3,.34,5.14,1,6.4a2.81,2.81,0,0,0,2.62,1.6,3,3,0,0,0,2.91-2.11,16.26,16.26,0,0,0,.8-5.86c0-3-.34-5.07-1-6.29A2.79,2.79,0,0,0,521.72,518.93Z" transform="translate(-49 -299)"/><path class="cls-2" d="M547.8,527.33H531.42v5.8l.05,4.42c0,.12-.06.18-.17.18h-.9c-.12,0-.17-.06-.17-.18l0-4.62V522.4l0-4.65c0-.13,0-.2.17-.2l3.57.05h11.31l3.55-.05c.11,0,.17.07.17.2l0,4.7v9.23l0,3.86a1.79,1.79,0,0,1-.6,1.51,4.88,4.88,0,0,1-2.63.42h-.49a.76.76,0,0,1-.39-.06,1.43,1.43,0,0,1-.14-.34,3.17,3.17,0,0,0-.43-.89q.93.09,2.31.09a1.54,1.54,0,0,0,1-.22,1,1,0,0,0,.2-.72Zm-8.9-1.05v-7.61h-7.48v7.61Zm1.13,0h7.77v-7.61H540Z" transform="translate(-49 -299)"/><path class="cls-2" d="M576.15,471.91a6,6,0,0,1,2.06-3.69,5.1,5.1,0,0,1,3.25-1,4.82,4.82,0,0,1,3.63,1.38,4.42,4.42,0,0,1,1.21,3.23,5.39,5.39,0,0,1-.86,2.94,18.13,18.13,0,0,1-2.91,3.12,19.38,19.38,0,0,0-5,6.18h8.76v1.38H576v-1.23a20.79,20.79,0,0,1,5.41-7.24,15.42,15.42,0,0,0,2.69-3,4.13,4.13,0,0,0,.55-2.11,3.08,3.08,0,0,0-1-2.48,3.25,3.25,0,0,0-2.21-.75q-3.07,0-3.71,3.75Z" transform="translate(-49 -299)"/><path class="cls-2" d="M593.68,467.18q5.33,0,5.33,9.18,0,9.38-5.39,9.38t-5.32-9.33Q588.3,467.18,593.68,467.18Zm0,1.38a3,3,0,0,0-2.89,2,15.42,15.42,0,0,0-.82,5.78c0,3,.35,5.14,1,6.4a2.8,2.8,0,0,0,2.62,1.6,3,3,0,0,0,2.91-2.11,16,16,0,0,0,.8-5.86q0-4.45-1-6.29A2.83,2.83,0,0,0,593.68,468.56Z" transform="translate(-49 -299)"/><path class="cls-2" d="M606.59,467.18q5.32,0,5.32,9.18,0,9.38-5.38,9.38t-5.32-9.33Q601.21,467.18,606.59,467.18Zm0,1.38a3,3,0,0,0-2.89,2,15.21,15.21,0,0,0-.82,5.78q0,4.51,1,6.4a2.79,2.79,0,0,0,2.62,1.6,3,3,0,0,0,2.91-2.11,16.26,16.26,0,0,0,.8-5.86c0-3-.34-5.07-1-6.29A2.82,2.82,0,0,0,606.59,468.56Z" transform="translate(-49 -299)"/><path class="cls-2" d="M616.44,482.93v2.48l-1.36,3.41H614l1.26-3.41h-1.36v-2.48Z" transform="translate(-49 -299)"/><path class="cls-2" d="M623.91,467.18q5.33,0,5.32,9.18,0,9.38-5.38,9.38t-5.33-9.33Q618.52,467.18,623.91,467.18Zm0,1.38a3,3,0,0,0-2.9,2,15.45,15.45,0,0,0-.81,5.78q0,4.51,1,6.4a2.81,2.81,0,0,0,2.63,1.6,3,3,0,0,0,2.9-2.11,16,16,0,0,0,.81-5.86q0-4.45-1-6.29A2.83,2.83,0,0,0,623.91,468.56Z" transform="translate(-49 -299)"/><path class="cls-2" d="M636.81,467.18q5.33,0,5.33,9.18,0,9.38-5.39,9.38t-5.32-9.33Q631.43,467.18,636.81,467.18Zm0,1.38a3,3,0,0,0-2.89,2,15.42,15.42,0,0,0-.82,5.78c0,3,.35,5.14,1,6.4a2.8,2.8,0,0,0,2.62,1.6,3,3,0,0,0,2.91-2.11,16,16,0,0,0,.8-5.86q0-4.45-1-6.29A2.83,2.83,0,0,0,636.81,468.56Z" transform="translate(-49 -299)"/><path class="cls-2" d="M649.72,467.18q5.32,0,5.32,9.18,0,9.38-5.38,9.38t-5.32-9.33Q644.34,467.18,649.72,467.18Zm0,1.38a3,3,0,0,0-2.89,2,15.21,15.21,0,0,0-.82,5.78q0,4.51,1,6.4a2.79,2.79,0,0,0,2.62,1.6,3,3,0,0,0,2.91-2.11,16.26,16.26,0,0,0,.8-5.86c0-3-.34-5.07-1-6.29A2.81,2.81,0,0,0,649.72,468.56Z" transform="translate(-49 -299)"/><path class="cls-2" d="M675.8,477H659.42v5.8l.05,4.42c0,.12-.06.18-.17.18h-.9c-.12,0-.17-.06-.17-.18l0-4.61V472l0-4.65c0-.13,0-.2.17-.2l3.57.05h11.31l3.55-.05c.11,0,.17.07.17.2l0,4.7v9.23l0,3.87a1.78,1.78,0,0,1-.6,1.5,4.85,4.85,0,0,1-2.63.43h-.49c-.21,0-.34,0-.39-.07a1.43,1.43,0,0,1-.14-.34,3.3,3.3,0,0,0-.43-.89q.93.09,2.31.09a1.54,1.54,0,0,0,1-.22,1,1,0,0,0,.2-.72Zm-8.9-1v-7.6h-7.48v7.6Zm1.13,0h7.77v-7.6H668Z" transform="translate(-49 -299)"/><path class="cls-2" d="M576.15,522.28a6,6,0,0,1,2.06-3.69,5.1,5.1,0,0,1,3.25-1,4.82,4.82,0,0,1,3.63,1.38,4.39,4.39,0,0,1,1.21,3.22,5.4,5.4,0,0,1-.86,3,18.13,18.13,0,0,1-2.91,3.12,19.38,19.38,0,0,0-5,6.18h8.76v1.38H576v-1.24a20.85,20.85,0,0,1,5.41-7.23,15.71,15.71,0,0,0,2.69-3,4.14,4.14,0,0,0,.55-2.12,3.07,3.07,0,0,0-1-2.47,3.25,3.25,0,0,0-2.21-.75q-3.07,0-3.71,3.75Z" transform="translate(-49 -299)"/><path class="cls-2" d="M593.68,517.55q5.33,0,5.33,9.18,0,9.38-5.39,9.38t-5.32-9.33Q588.3,517.56,593.68,517.55Zm0,1.38a3,3,0,0,0-2.89,2,15.42,15.42,0,0,0-.82,5.78c0,3,.35,5.14,1,6.4a2.82,2.82,0,0,0,2.62,1.6,3,3,0,0,0,2.91-2.11,16,16,0,0,0,.8-5.86q0-4.46-1-6.29A2.82,2.82,0,0,0,593.68,518.93Z" transform="translate(-49 -299)"/><path class="cls-2" d="M606.59,517.55q5.32,0,5.32,9.18,0,9.38-5.38,9.38t-5.32-9.33Q601.21,517.56,606.59,517.55Zm0,1.38a3,3,0,0,0-2.89,2,15.21,15.21,0,0,0-.82,5.78c0,3,.34,5.14,1,6.4a2.81,2.81,0,0,0,2.62,1.6,3,3,0,0,0,2.91-2.11,16.26,16.26,0,0,0,.8-5.86c0-3-.34-5.07-1-6.29A2.8,2.8,0,0,0,606.59,518.93Z" transform="translate(-49 -299)"/><path class="cls-2" d="M616.44,533.3v2.48l-1.36,3.4H614l1.26-3.4h-1.36V533.3Z" transform="translate(-49 -299)"/><path class="cls-2" d="M623.91,517.55q5.33,0,5.32,9.18,0,9.38-5.38,9.38t-5.33-9.33Q618.52,517.56,623.91,517.55Zm0,1.38a3,3,0,0,0-2.9,2,15.45,15.45,0,0,0-.81,5.78c0,3,.34,5.14,1,6.4a2.82,2.82,0,0,0,2.63,1.6,3,3,0,0,0,2.9-2.11,16,16,0,0,0,.81-5.86q0-4.46-1-6.29A2.81,2.81,0,0,0,623.91,518.93Z" transform="translate(-49 -299)"/><path class="cls-2" d="M636.81,517.55q5.33,0,5.33,9.18,0,9.38-5.39,9.38t-5.32-9.33Q631.43,517.56,636.81,517.55Zm0,1.38a3,3,0,0,0-2.89,2,15.42,15.42,0,0,0-.82,5.78c0,3,.35,5.14,1,6.4a2.82,2.82,0,0,0,2.62,1.6,3,3,0,0,0,2.91-2.11,16,16,0,0,0,.8-5.86q0-4.46-1-6.29A2.82,2.82,0,0,0,636.81,518.93Z" transform="translate(-49 -299)"/><path class="cls-2" d="M649.72,517.55q5.32,0,5.32,9.18,0,9.38-5.38,9.38t-5.32-9.33Q644.34,517.56,649.72,517.55Zm0,1.38a3,3,0,0,0-2.89,2,15.21,15.21,0,0,0-.82,5.78c0,3,.34,5.14,1,6.4a2.81,2.81,0,0,0,2.62,1.6,3,3,0,0,0,2.91-2.11,16.26,16.26,0,0,0,.8-5.86c0-3-.34-5.07-1-6.29A2.79,2.79,0,0,0,649.72,518.93Z" transform="translate(-49 -299)"/><path class="cls-2" d="M675.8,527.33H659.42v5.8l.05,4.42c0,.12-.06.18-.17.18h-.9c-.12,0-.17-.06-.17-.18l0-4.62V522.4l0-4.65c0-.13,0-.2.17-.2l3.57.05h11.31l3.55-.05c.11,0,.17.07.17.2l0,4.7v9.23l0,3.86a1.79,1.79,0,0,1-.6,1.51,4.88,4.88,0,0,1-2.63.42h-.49a.76.76,0,0,1-.39-.06,1.43,1.43,0,0,1-.14-.34,3.17,3.17,0,0,0-.43-.89q.93.09,2.31.09a1.54,1.54,0,0,0,1-.22,1,1,0,0,0,.2-.72Zm-8.9-1.05v-7.61h-7.48v7.61Zm1.13,0h7.77v-7.61H668Z" transform="translate(-49 -299)"/><path class="cls-2" d="M192.15,522.28a6,6,0,0,1,2.06-3.69,5.1,5.1,0,0,1,3.25-1,4.82,4.82,0,0,1,3.63,1.38,4.39,4.39,0,0,1,1.21,3.22,5.4,5.4,0,0,1-.86,3,18.13,18.13,0,0,1-2.91,3.12,19.38,19.38,0,0,0-5,6.18h8.76v1.38H192v-1.24a21,21,0,0,1,5.41-7.23,15.71,15.71,0,0,0,2.69-3,4.14,4.14,0,0,0,.55-2.12,3.07,3.07,0,0,0-1-2.47,3.25,3.25,0,0,0-2.21-.75q-3.08,0-3.71,3.75Z" transform="translate(-49 -299)"/><path class="cls-2" d="M209.69,517.55q5.31,0,5.32,9.18,0,9.38-5.39,9.38t-5.32-9.33Q204.3,517.56,209.69,517.55Zm0,1.38a3,3,0,0,0-2.9,2,15.42,15.42,0,0,0-.82,5.78c0,3,.35,5.14,1,6.4a2.82,2.82,0,0,0,2.62,1.6,3,3,0,0,0,2.91-2.11,16,16,0,0,0,.8-5.86q0-4.46-1-6.29A2.81,2.81,0,0,0,209.69,518.93Z" transform="translate(-49 -299)"/><path class="cls-2" d="M222.59,517.55q5.32,0,5.32,9.18,0,9.38-5.38,9.38t-5.32-9.33Q217.21,517.56,222.59,517.55Zm0,1.38a3,3,0,0,0-2.89,2,15.21,15.21,0,0,0-.82,5.78c0,3,.34,5.14,1,6.4a2.81,2.81,0,0,0,2.62,1.6,3,3,0,0,0,2.91-2.11,16.26,16.26,0,0,0,.8-5.86c0-3-.34-5.07-1-6.29A2.79,2.79,0,0,0,222.59,518.93Z" transform="translate(-49 -299)"/><path class="cls-2" d="M232.44,533.3v2.48l-1.36,3.4H230l1.26-3.4h-1.36V533.3Z" transform="translate(-49 -299)"/><path class="cls-2" d="M239.91,517.55q5.33,0,5.32,9.18,0,9.38-5.38,9.38t-5.33-9.33Q234.52,517.56,239.91,517.55Zm0,1.38a3,3,0,0,0-2.89,2,15.21,15.21,0,0,0-.82,5.78c0,3,.34,5.14,1,6.4a2.83,2.83,0,0,0,2.63,1.6,3,3,0,0,0,2.9-2.11,16,16,0,0,0,.81-5.86q0-4.46-1-6.29A2.81,2.81,0,0,0,239.91,518.93Z" transform="translate(-49 -299)"/><path class="cls-2" d="M252.81,517.55q5.32,0,5.33,9.18,0,9.38-5.39,9.38t-5.32-9.33Q247.43,517.56,252.81,517.55Zm0,1.38a3,3,0,0,0-2.89,2,15.42,15.42,0,0,0-.82,5.78c0,3,.35,5.14,1,6.4a2.82,2.82,0,0,0,2.62,1.6,3,3,0,0,0,2.91-2.11,16,16,0,0,0,.81-5.86q0-4.46-1-6.29A2.82,2.82,0,0,0,252.81,518.93Z" transform="translate(-49 -299)"/><path class="cls-2" d="M265.72,517.55q5.32,0,5.32,9.18,0,9.38-5.38,9.38t-5.32-9.33Q260.34,517.56,265.72,517.55Zm0,1.38a3,3,0,0,0-2.89,2,15.21,15.21,0,0,0-.82,5.78c0,3,.34,5.14,1,6.4a2.81,2.81,0,0,0,2.62,1.6,3,3,0,0,0,2.91-2.11,16.26,16.26,0,0,0,.8-5.86c0-3-.34-5.07-1-6.29A2.79,2.79,0,0,0,265.72,518.93Z" transform="translate(-49 -299)"/><path class="cls-2" d="M291.8,527.33H275.42v5.8l.05,4.42c0,.12-.06.18-.17.18h-.9c-.12,0-.17-.06-.17-.18l0-4.62V522.4l0-4.65c0-.13,0-.2.17-.2l3.57.05h11.31l3.55-.05c.11,0,.17.07.17.2l-.05,4.7v9.23l.05,3.86a1.79,1.79,0,0,1-.6,1.51,4.88,4.88,0,0,1-2.63.42h-.49a.76.76,0,0,1-.39-.06,1.43,1.43,0,0,1-.14-.34,3.17,3.17,0,0,0-.43-.89q.93.09,2.31.09a1.54,1.54,0,0,0,1-.22,1,1,0,0,0,.2-.72Zm-8.9-1.05v-7.61h-7.48v7.61Zm1.13,0h7.77v-7.61H284Z" transform="translate(-49 -299)"/><path class="cls-2" d="M199.42,467.23v16.85h3.37v1.33h-8.52v-1.33h3.6V468.93a17.86,17.86,0,0,1-3.68,1.88l-.28-1.45a18.06,18.06,0,0,0,4.23-2.13Z" transform="translate(-49 -299)"/><path class="cls-2" d="M214,467.49v1.26a34.49,34.49,0,0,0-3.84,8.29,39.08,39.08,0,0,0-1.55,8.37h-1.78a37.54,37.54,0,0,1,2.05-9.36,38.08,38.08,0,0,1,3.5-7.13h-8.75v-1.43Z" transform="translate(-49 -299)"/><path class="cls-2" d="M220.68,467.18q5.32,0,5.32,9.18,0,9.38-5.38,9.38t-5.32-9.33Q215.3,467.18,220.68,467.18Zm0,1.38a3,3,0,0,0-2.89,2,15.21,15.21,0,0,0-.82,5.78q0,4.51,1,6.4a2.82,2.82,0,0,0,2.63,1.6,3,3,0,0,0,2.9-2.11,16,16,0,0,0,.81-5.86q0-4.45-1-6.29A2.83,2.83,0,0,0,220.68,468.56Z" transform="translate(-49 -299)"/><path class="cls-2" d="M230.52,482.93v2.48l-1.35,3.41h-1l1.26-3.41H228v-2.48Z" transform="translate(-49 -299)"/><path class="cls-2" d="M238,467.18q5.31,0,5.32,9.18,0,9.38-5.39,9.38t-5.32-9.33Q232.61,467.18,238,467.18Zm0,1.38a3,3,0,0,0-2.9,2,15.42,15.42,0,0,0-.82,5.78c0,3,.35,5.14,1,6.4a2.8,2.8,0,0,0,2.62,1.6,3,3,0,0,0,2.91-2.11,16,16,0,0,0,.81-5.86q0-4.45-1-6.29A2.83,2.83,0,0,0,238,468.56Z" transform="translate(-49 -299)"/><path class="cls-2" d="M250.9,467.18q5.32,0,5.32,9.18,0,9.38-5.38,9.38t-5.32-9.33Q245.52,467.18,250.9,467.18Zm0,1.38a3,3,0,0,0-2.89,2,15.21,15.21,0,0,0-.82,5.78q0,4.51,1,6.4a2.79,2.79,0,0,0,2.62,1.6,3,3,0,0,0,2.91-2.11,16.26,16.26,0,0,0,.8-5.86c0-3-.34-5.07-1-6.29A2.81,2.81,0,0,0,250.9,468.56Z" transform="translate(-49 -299)"/><path class="cls-2" d="M263.81,467.18q5.32,0,5.32,9.18,0,9.38-5.38,9.38t-5.32-9.33Q258.43,467.18,263.81,467.18Zm0,1.38a3,3,0,0,0-2.89,2,15.21,15.21,0,0,0-.82,5.78q0,4.51,1,6.4a2.82,2.82,0,0,0,2.63,1.6,3,3,0,0,0,2.9-2.11,16,16,0,0,0,.81-5.86q0-4.45-1-6.29A2.83,2.83,0,0,0,263.81,468.56Z" transform="translate(-49 -299)"/><path class="cls-2" d="M289.89,477H273.51v5.8l.05,4.42c0,.12-.06.18-.17.18h-.91c-.11,0-.17-.06-.17-.18l.05-4.61V472l-.05-4.65c0-.13.06-.2.17-.2l3.58.05h11.3l3.56-.05c.11,0,.17.07.17.2l0,4.7v9.23l0,3.87a1.78,1.78,0,0,1-.6,1.5,4.91,4.91,0,0,1-2.64.43h-.49c-.21,0-.34,0-.39-.07a1.66,1.66,0,0,1-.13-.34,3.3,3.3,0,0,0-.43-.89q.93.09,2.31.09a1.49,1.49,0,0,0,1-.22,1,1,0,0,0,.21-.72Zm-8.9-1v-7.6h-7.48v7.6Zm1.12,0h7.78v-7.6h-7.78Z" transform="translate(-49 -299)"/><path class="cls-2" d="M88.46,473H85.52L82,473a.15.15,0,0,1-.17-.17v-.74A.15.15,0,0,1,82,472l3.51.05h2.94a25.09,25.09,0,0,0-.17-2.57c.45.05.84.09,1.17.14s.38.15.38.26-.06.2-.17.55a8.66,8.66,0,0,0-.08,1.62h3.3l3.44-.05c.12,0,.18.06.18.17v.74c0,.11-.06.17-.18.17l-3.44,0h-3.3c0,1.08,0,1.9,0,2.45h2.88l3.4-.05a.15.15,0,0,1,.17.17v.74a.15.15,0,0,1-.17.17l-3.4,0H89.51a15.6,15.6,0,0,1-.27,2.56h6.6l3.45-.05a.15.15,0,0,1,.17.17v.74a.15.15,0,0,1-.17.17L95.84,480h-6q2.91,4.6,10.4,5.8a2.4,2.4,0,0,0-.53.78c-.1.23-.19.34-.29.34l-.28-.05q-7.29-1.45-10.28-6.54A7.91,7.91,0,0,1,88,482a10.12,10.12,0,0,1-3.51,3,21.17,21.17,0,0,1-4.94,1.81,1.44,1.44,0,0,1-.29.06c-.1,0-.2-.11-.31-.33a1.78,1.78,0,0,0-.52-.68q6.49-1.31,8.7-4.53a6.32,6.32,0,0,0,.67-1.32h-5l-3.42.05a.15.15,0,0,1-.17-.17v-.74a.15.15,0,0,1,.17-.17l3.42.05h5.29a14.75,14.75,0,0,0,.31-2.56H85.81l-3.39,0c-.13,0-.19-.06-.19-.17v-.74c0-.11.06-.17.19-.17l3.39.05h2.6C88.44,474.33,88.46,473.52,88.46,473Zm0-5.27v-.36a13.46,13.46,0,0,0-.17-2.62q.69,0,1.32.12c.18,0,.28.1.28.21a1.78,1.78,0,0,1-.15.45,6.94,6.94,0,0,0-.13,1.84v.36h5.87l3.5,0a.15.15,0,0,1,.17.17l0,1.15v.92l0,2.6a.15.15,0,0,1-.17.17h-.85c-.12,0-.17-.05-.17-.17v-3.77H80.44v3.77a.15.15,0,0,1-.17.17h-.86a.15.15,0,0,1-.17-.17l.05-2.6v-.77l-.05-1.3a.15.15,0,0,1,.17-.17l3.53,0Z" transform="translate(-49 -299)"/><path class="cls-2" d="M110.93,470.65c0,.11,0,.23,0,.35s0,.27,0,.4a1.75,1.75,0,0,1,0,.25c0,.11-.12.23-.36.35-1.27.69-2.84,1.45-4.68,2.29a2.66,2.66,0,0,0-.88.54.41.41,0,0,1-.27.15.33.33,0,0,1-.26-.17,11.44,11.44,0,0,1-.55-1.11,9.6,9.6,0,0,0,1.7-.5A35.21,35.21,0,0,0,110.93,470.65Zm1.5-3.87H107l-2.83.05c-.12,0-.17-.07-.17-.2v-.73a.15.15,0,0,1,.17-.17l2.83,0h3.54l2.88,0a.15.15,0,0,1,.17.17l0,1.78v3l0,2.72a1.69,1.69,0,0,1-.53,1.48,5.2,5.2,0,0,1-2.65.4.61.61,0,0,1-.35-.06,1.07,1.07,0,0,1-.15-.37,2,2,0,0,0-.4-.74c.49.05,1,.07,1.69.07a1.62,1.62,0,0,0,1.07-.24,1.06,1.06,0,0,0,.19-.74Zm-6.34,1.05a16.16,16.16,0,0,1,2.9,1.72c.07.06.1.1.1.15a.58.58,0,0,1-.15.25l-.23.31c-.14.17-.23.25-.28.25a.28.28,0,0,1-.15-.08,10.85,10.85,0,0,0-2.79-1.8c-.07,0-.11-.08-.11-.12a.33.33,0,0,1,.08-.16l.33-.42c.07-.09.13-.14.17-.14A.24.24,0,0,1,106.09,467.83Zm2.55,18.3v1a.15.15,0,0,1-.17.17h-.83c-.12,0-.17,0-.17-.17l0-4.55v-2.22l0-3a.15.15,0,0,1,.17-.17l3.5.05h2a13.6,13.6,0,0,0,.55-1.38,7.08,7.08,0,0,0,.22-.94,8.73,8.73,0,0,1,1.23.29c.15.07.22.14.22.23a.44.44,0,0,1-.2.32,1.36,1.36,0,0,0-.35.48c-.23.48-.39.81-.5,1h3.89l3.53-.05a.15.15,0,0,1,.17.17l0,2.67v2.48l0,4.51a.15.15,0,0,1-.17.17h-.85a.15.15,0,0,1-.17-.17v-.88Zm0-5.11h12v-2.84h-12Zm0,1v3.17h12V482Zm14.57-15.2h-5.37l-2.83.05c-.11,0-.17-.07-.17-.2v-.73a.15.15,0,0,1,.17-.17l2.83,0h3.47l2.88,0a.15.15,0,0,1,.17.17l0,1.78v3l0,2.72a1.82,1.82,0,0,1-.52,1.48,6,6,0,0,1-2.7.4.65.65,0,0,1-.36-.06,1,1,0,0,1-.12-.32,4.14,4.14,0,0,0-.4-.79c.62.05,1.17.07,1.65.07a1.7,1.7,0,0,0,1.1-.24,1.06,1.06,0,0,0,.2-.74Zm-1.45,3.62c0,.13,0,.24,0,.35s0,.25,0,.4a1,1,0,0,0,0,.13v.09q0,.19-.33.39-1.6.84-4.26,2a5.12,5.12,0,0,0-1,.5c-.13.13-.23.2-.31.2s-.18-.08-.26-.24a8.75,8.75,0,0,1-.48-1,10.15,10.15,0,0,0,1.88-.52A30.5,30.5,0,0,0,121.76,470.4ZM116,468.61c-.06,0-.08-.05-.08-.09s0-.13.15-.27l.26-.28c.08-.09.15-.14.21-.14a.21.21,0,0,1,.13.05,12.49,12.49,0,0,1,2.83,1.8c.06,0,.09.08.09.11a.49.49,0,0,1-.13.23l-.26.33c-.13.17-.22.25-.27.25a.41.41,0,0,1-.12-.07A11.37,11.37,0,0,0,116,468.61Z" transform="translate(-49 -299)"/><path class="cls-2" d="M132.91,475.43a24.18,24.18,0,0,1-3,1l-.31.06c-.09,0-.2-.1-.31-.31a1.57,1.57,0,0,0-.48-.55q5.34-.93,7-3.44h-4l-.3.67c-.07.16-.15.23-.23.23l-.2,0-.32-.08c-.2-.05-.3-.11-.3-.17a.55.55,0,0,1,.07-.19,17,17,0,0,0,.88-2.19,5.5,5.5,0,0,0,.29-1.35.18.18,0,0,1,.21-.2l3.55,0h1.42a14.85,14.85,0,0,0,.13-1.65h-2.52l-3.55.05c-.12,0-.18-.05-.18-.14v-.59c0-.11.06-.17.18-.17l3.55.05H137v-.33a4.82,4.82,0,0,0-.13-1.32,8.66,8.66,0,0,1,1.07.1c.21,0,.31.12.31.25a1.18,1.18,0,0,1-.12.3,1.92,1.92,0,0,0-.1.78v.22h4.19v-.05a6.42,6.42,0,0,0-.17-1.62,8.32,8.32,0,0,1,1.12.09c.19,0,.28.1.28.22s0,.12-.12.33a2.61,2.61,0,0,0-.11,1v.05h1.5l3.73-.05q.15,0,.15.18l-.06,1.2v.57l.06,1.24c0,.11-.05.17-.15.17l-3.73-.05h-1.5v1.62h3.65l3.55-.05q.18,0,.18.15a.09.09,0,0,1,0,.05c0,.23,0,.44-.07.61a10.76,10.76,0,0,1-.43,1.87,1.43,1.43,0,0,1-.62.79,2.18,2.18,0,0,1-.95.17,6.16,6.16,0,0,1-1.23-.1l0,.66c0,.4,0,1,0,1.8V481l0,2.43a.15.15,0,0,1-.17.17l-3.52-.05h-7l-3.55.05c-.12,0-.18-.06-.18-.17l0-2.5Zm-3.86,10.9a19.3,19.3,0,0,0,5.91-1.75,2.9,2.9,0,0,0,.85-.65,6.08,6.08,0,0,1,1,.5c.15.11.23.2.23.28s-.09.17-.26.2a2,2,0,0,0-.72.28,20.17,20.17,0,0,1-5.93,2.05l-.27,0c-.1,0-.2-.09-.3-.29A1.94,1.94,0,0,0,129.05,486.33Zm3.08-15h4.13a8.11,8.11,0,0,0,.5-1.62h-4.15Q132.51,470.17,132.13,471.33Zm1.86,4.3v1.69h12.19v-1.69Zm0,2.52v1.75h12.19v-1.75Zm0,2.58v1.92h12.19v-1.92Zm.33-6h9.29l3.55,0a.54.54,0,0,1,0-.22,1.82,1.82,0,0,0-.23-.65,11.68,11.68,0,0,0,1.55.13,1,1,0,0,0,.56-.12.68.68,0,0,0,.19-.4,7.68,7.68,0,0,0,.25-1.26h-6.2c0,.48,0,.93.05,1.36,0,.27,0,.42,0,.44s-.06.17-.18.17h-.75c-.12,0-.18-.06-.18-.17s0-.11,0-.26c0-.5,0-1,0-1.54h-5.3A6.62,6.62,0,0,1,134.32,474.72Zm3-3.39h4.9v-1.62h-4.45A8.82,8.82,0,0,1,137.33,471.33Zm4.9-4.08H138a11.7,11.7,0,0,1-.11,1.65h4.32Zm8.18,19a2.32,2.32,0,0,0-.53.68c-.11.19-.21.29-.32.29a1.48,1.48,0,0,1-.28,0,17.76,17.76,0,0,1-6.44-2.5.17.17,0,0,1-.1-.14c0-.05.06-.12.19-.2l.48-.28a.72.72,0,0,1,.24-.09.25.25,0,0,1,.14,0A16.93,16.93,0,0,0,150.41,486.22Zm-7.18-19v1.65h4.29v-1.65Z" transform="translate(-49 -299)"/><path class="cls-2" d="M198.43,416.87v16.84h3.37V435h-8.52v-1.33h3.6V418.56a17.29,17.29,0,0,1-3.67,1.88l-.28-1.45a17.94,17.94,0,0,0,4.22-2.12Z" transform="translate(-49 -299)"/><path class="cls-2" d="M213.56,417.12v1.38h-7.39l-.22,4.75q0,.54-.15,2.1a3.84,3.84,0,0,1,1.58-1.43,4.25,4.25,0,0,1,1.93-.45,4.45,4.45,0,0,1,3.65,1.76,6.31,6.31,0,0,1,1.24,4,6.24,6.24,0,0,1-1.76,4.73A5.33,5.33,0,0,1,203.9,432l1.53-.65A3.46,3.46,0,0,0,208.9,434a3.19,3.19,0,0,0,2.78-1.42,5.65,5.65,0,0,0,.87-3.28,5.1,5.1,0,0,0-1.05-3.47,3.1,3.1,0,0,0-2.42-1,3.29,3.29,0,0,0-2.15.74,3.9,3.9,0,0,0-1.2,1.76l-1.31-.21.43-10Z" transform="translate(-49 -299)"/><path class="cls-2" d="M221.66,416.82q5.33,0,5.33,9.18,0,9.38-5.39,9.37t-5.32-9.32Q216.28,416.81,221.66,416.82Zm0,1.38a3,3,0,0,0-2.89,2A15.44,15.44,0,0,0,218,426q0,4.5,1,6.39a2.8,2.8,0,0,0,2.62,1.6,3,3,0,0,0,2.91-2.11,16,16,0,0,0,.8-5.86c0-3-.34-5.06-1-6.29A2.82,2.82,0,0,0,221.66,418.2Z" transform="translate(-49 -299)"/><path class="cls-2" d="M231.51,432.56V435l-1.36,3.41H229.1l1.26-3.41H229v-2.48Z" transform="translate(-49 -299)"/><path class="cls-2" d="M239,416.82q5.33,0,5.32,9.18,0,9.38-5.38,9.37t-5.32-9.32Q233.6,416.81,239,416.82Zm0,1.38a3,3,0,0,0-2.89,2,15.24,15.24,0,0,0-.82,5.79q0,4.5,1,6.39a2.82,2.82,0,0,0,2.63,1.6,3,3,0,0,0,2.9-2.11,16,16,0,0,0,.81-5.86c0-3-.35-5.06-1-6.29A2.82,2.82,0,0,0,239,418.2Z" transform="translate(-49 -299)"/><path class="cls-2" d="M251.89,416.82q5.33,0,5.32,9.18,0,9.38-5.38,9.37t-5.33-9.32Q246.5,416.81,251.89,416.82Zm0,1.38a3,3,0,0,0-2.89,2,15.24,15.24,0,0,0-.82,5.79q0,4.5,1,6.39a2.82,2.82,0,0,0,2.63,1.6,3,3,0,0,0,2.9-2.11,16,16,0,0,0,.81-5.86c0-3-.35-5.06-1-6.29A2.82,2.82,0,0,0,251.89,418.2Z" transform="translate(-49 -299)"/><path class="cls-2" d="M264.79,416.82q5.32,0,5.33,9.18,0,9.38-5.39,9.37t-5.32-9.32Q259.41,416.81,264.79,416.82Zm0,1.38a3,3,0,0,0-2.89,2,15.44,15.44,0,0,0-.82,5.79q0,4.5,1,6.39a2.8,2.8,0,0,0,2.62,1.6,3,3,0,0,0,2.91-2.11,16.23,16.23,0,0,0,.8-5.86c0-3-.34-5.06-1-6.29A2.82,2.82,0,0,0,264.79,418.2Z" transform="translate(-49 -299)"/><path class="cls-2" d="M290.88,426.6H274.49v5.79l.05,4.42c0,.12-.05.19-.17.19h-.9c-.12,0-.17-.07-.17-.19l.05-4.61V421.66L273.3,417c0-.13.05-.19.17-.19l3.57.05h11.31l3.55-.05c.12,0,.17.06.17.19l-.05,4.7v9.23l.05,3.87a1.78,1.78,0,0,1-.6,1.5,4.75,4.75,0,0,1-2.63.43h-.49a.76.76,0,0,1-.39-.06,1.68,1.68,0,0,1-.14-.34,3.42,3.42,0,0,0-.42-.89c.62.05,1.38.08,2.3.08a1.48,1.48,0,0,0,1-.22,1,1,0,0,0,.21-.72Zm-8.9-1.05v-7.61h-7.49v7.61Zm1.12,0h7.78v-7.61H283.1Z" transform="translate(-49 -299)"/><path class="cls-2" d="M78.07,435.66a18.1,18.1,0,0,0,8-7.85,22.17,22.17,0,0,0,2.53-10H84.94l-2.27.05c-.12,0-.18-.05-.18-.17v-.85c0-.12.06-.17.18-.17l2.27.05h2.31l2.29-.05c.13,0,.2.06.2.19v.36A19.25,19.25,0,0,0,90,420a20.63,20.63,0,0,0,10,15.57,1.78,1.78,0,0,0-.69.7c-.12.19-.22.28-.28.28a.71.71,0,0,1-.3-.16,21.92,21.92,0,0,1-6.64-6.85,22.75,22.75,0,0,1-2.84-8.21,19.28,19.28,0,0,1-3.48,9.29,20.37,20.37,0,0,1-6.29,5.78,1.07,1.07,0,0,1-.31.14c-.06,0-.17-.09-.32-.26A1.93,1.93,0,0,0,78.07,435.66Z" transform="translate(-49 -299)"/><path class="cls-2" d="M112.3,429.91h-6.9l-3.31,0a.15.15,0,0,1-.17-.17V429a.15.15,0,0,1,.17-.17l3.31,0h6.9a13.21,13.21,0,0,0-.17-2.6q.63.13,1.17.3a22.9,22.9,0,0,0,3.63-2.48h-7.18l-3.25.05c-.12,0-.18-.05-.18-.17v-.78c0-.11.06-.17.18-.17l3.25.05h7.07a2.79,2.79,0,0,0,.65-.05.92.92,0,0,1,.25-.05q.18,0,.6.45a1.19,1.19,0,0,1,.4.67.26.26,0,0,1-.22.28,3.75,3.75,0,0,0-1,.6,27.87,27.87,0,0,1-4,2.47,6,6,0,0,0,0,1v.45h6.8l3.3,0c.12,0,.18.06.18.17v.83c0,.11-.06.17-.18.17l-3.3,0h-6.8v2.93l0,2.15a1.67,1.67,0,0,1-.63,1.48,4.51,4.51,0,0,1-2.07.38c-.51,0-.94,0-1.27,0a1.27,1.27,0,0,1-.38-.06.63.63,0,0,1-.12-.32,3.78,3.78,0,0,0-.43-.9,21,21,0,0,0,2.55.16,1.41,1.41,0,0,0,.89-.22,1,1,0,0,0,.26-.78Zm4.53-10.47a21.2,21.2,0,0,0,1.79-3.25,4.24,4.24,0,0,0,.28-1.1,6.19,6.19,0,0,1,1.15.45q.24.13.24.3a.31.31,0,0,1-.14.25,1.53,1.53,0,0,0-.48.58c-.42.81-1,1.73-1.64,2.77h1.17l3.5-.05c.13,0,.19.05.19.15l0,1.18v1l0,2.62c0,.12-.06.18-.19.18h-.83c-.11,0-.17-.06-.17-.18v-3.9H104v3.9c0,.12,0,.18-.17.18H103c-.12,0-.17-.06-.17-.18l0-2.62v-.85l0-1.33c0-.1,0-.15.17-.15l3.5.05Zm-10.46-4.08a19.56,19.56,0,0,1,1.95,2.83.27.27,0,0,1,.06.14c0,.05-.08.14-.25.24l-.36.17a1,1,0,0,1-.34.14c-.05,0-.09-.05-.14-.14a15.23,15.23,0,0,0-1.92-2.9.15.15,0,0,1-.05-.1s.09-.11.28-.2l.35-.18a.69.69,0,0,1,.27-.09A.2.2,0,0,1,106.37,415.36Zm4.88,0a.42.42,0,0,1,0-.12c0-.06.08-.12.25-.2l.37-.14a.74.74,0,0,1,.22-.08s.11,0,.16.13a16.27,16.27,0,0,1,1.63,2.94.3.3,0,0,1,0,.11c0,.05-.1.12-.32.22l-.34.14a1,1,0,0,1-.33.11c-.06,0-.11-.05-.14-.16A14.27,14.27,0,0,0,111.25,415.36Z" transform="translate(-49 -299)"/><path class="cls-2" d="M139.64,415.36a20.26,20.26,0,0,0,5.54,5.15,30,30,0,0,0,5.75,2.71,2.31,2.31,0,0,0-.6.72c-.09.19-.17.28-.25.28a1.27,1.27,0,0,1-.35-.11A23.69,23.69,0,0,1,139,416.19a24.63,24.63,0,0,1-5.06,5.13,30.82,30.82,0,0,1-5.32,3.1.64.64,0,0,1-.27.08q-.1,0-.3-.27a1.89,1.89,0,0,0-.68-.54q7.14-3.1,10.48-7.95a4,4,0,0,0,.65-1.32,6.34,6.34,0,0,1,1.24.29c.2.08.3.18.3.31a.22.22,0,0,1-.14.19Zm-1.33,11.76v-3.41h-1.7l-3.15.05c-.12,0-.18-.06-.18-.17v-.81c0-.11.06-.17.18-.17l3.15.05h4.9l3.17-.05a.15.15,0,0,1,.17.17v.81a.15.15,0,0,1-.17.17l-3.17-.05h-2v3.41H145l3.47-.05c.12,0,.18.05.18.17v.8c0,.12-.06.17-.18.17l-3.47,0h-5.53V435h6.23l3.43-.05a.15.15,0,0,1,.17.17V436a.15.15,0,0,1-.17.17l-3.43-.05H132.46l-3.43.05a.15.15,0,0,1-.17-.17v-.83A.15.15,0,0,1,129,435l3.43.05h5.85v-6.87h-5l-3.47,0c-.12,0-.18,0-.18-.17v-.8c0-.12.06-.17.18-.17l3.47.05Zm-4.85,2.5a17.11,17.11,0,0,1,1.87,3.55.51.51,0,0,1,0,.11c0,.07-.08.13-.24.21l-.45.23a.84.84,0,0,1-.33.13s-.07,0-.09-.12a15.06,15.06,0,0,0-1.81-3.61.42.42,0,0,1,0-.12s.09-.11.28-.21l.38-.17a.71.71,0,0,1,.27-.11S133.41,429.54,133.46,429.62Zm8.75,4.2a18,18,0,0,0,2.1-3.53,3.62,3.62,0,0,0,.32-1,4.77,4.77,0,0,1,1,.46c.15.09.23.19.23.28s-.07.17-.22.29a1.52,1.52,0,0,0-.35.52,27.94,27.94,0,0,1-1.93,3.23c-.12.15-.2.23-.26.23a.66.66,0,0,1-.29-.18A1.31,1.31,0,0,0,142.21,433.82Z" transform="translate(-49 -299)"/><path class="cls-2" d="M219.27,357.07h3.44l2.08,0c.09,0,.14,0,.14.12v.58a.13.13,0,0,1-.14.14l-2.08,0h-.94a12.06,12.06,0,0,1,.8,1.68.25.25,0,0,1,0,.07s-.06.09-.19.13l-.37.12-.21.05c-.06,0-.09,0-.11-.12a10.18,10.18,0,0,0-.84-1.93h-2a12.85,12.85,0,0,1-1.87,2.3c-.11.12-.2.18-.24.18s-.12-.05-.26-.17a1.09,1.09,0,0,0-.49-.25,11.21,11.21,0,0,0,2.84-3.93,2.07,2.07,0,0,0,.19-.77,4.2,4.2,0,0,1,.93.22q.18.07.18.18a.43.43,0,0,1-.14.25,1.79,1.79,0,0,0-.32.5C219.52,356.62,219.39,356.86,219.27,357.07Zm4.5,10.37h-5.15s-.08.22-.2.53-.15.33-.2.46-.1.16-.18.16a1.59,1.59,0,0,1-.33,0c-.3-.06-.44-.12-.44-.17a.45.45,0,0,1,0-.13,21.58,21.58,0,0,0,1.13-3.18,5,5,0,0,0,.26-1.27.14.14,0,0,1,.16-.16l2.82,0h2.62l0-2.28h-3.5l-2.86,0c-.08,0-.13,0-.13-.11v-.61a.12.12,0,0,1,.13-.14l2.86,0h7.58l3,0c.09,0,.13.05.13.14l0,1.34V363l0,1.36c0,.09,0,.14-.13.14l-3,0h-3.14v2.23h4.62l2.88,0c.12,0,.17.05.17.15s-.09.66-.17,1.49a6.8,6.8,0,0,1-.59,2.71,2,2,0,0,1-1.85.84c-.44,0-.92,0-1.43-.07a.66.66,0,0,1-.31-.08.7.7,0,0,1-.09-.3,1.51,1.51,0,0,0-.31-.67,10,10,0,0,0,2,.23,1.38,1.38,0,0,0,1.26-.48,9.21,9.21,0,0,0,.5-3h-6.63l0,2.37c0,.88,0,1.69.07,2.41q0,.06,0,.6c0,.12,0,.2,0,.23s-.05.14-.16.14h-.71c-.1,0-.15,0-.15-.14l0-2.11c0-.41,0-.79,0-1.13l0-1.87a15,15,0,0,1-7.37,4.58l-.25.07c-.07,0-.15-.08-.25-.24a1.34,1.34,0,0,0-.47-.5A15.59,15.59,0,0,0,223.77,367.44Zm-4.88-.76h5.44l0-2.23h-4.76A20.49,20.49,0,0,1,218.89,366.68Zm7.94-9.61h4.25l2.39,0c.07,0,.11,0,.11.12v.58c0,.09,0,.14-.11.14l-2.39,0h-1.64a11,11,0,0,1,.85,1.66.25.25,0,0,1,0,.08c0,.05-.06.1-.17.14l-.36.14-.19,0c-.05,0-.08,0-.12-.12a9.65,9.65,0,0,0-.93-1.95h-2.08a12.06,12.06,0,0,1-1.38,2c-.11.13-.19.2-.24.2a.63.63,0,0,1-.24-.14,1.29,1.29,0,0,0-.53-.22,10.33,10.33,0,0,0,2.25-3.7,3.6,3.6,0,0,0,.15-.74,5.1,5.1,0,0,1,.86.21c.15,0,.23.11.23.19a.44.44,0,0,1-.16.27,1.39,1.39,0,0,0-.26.46Zm-1.66,4.32,0,2.28h5.32v-2.28Z" transform="translate(-49 -299)"/><path class="cls-2" d="M238.38,364.63l-2.68,0a.12.12,0,0,1-.14-.14v-.78a.12.12,0,0,1,.14-.14l2.68,0h11.36l2.67,0c.1,0,.15.05.15.14v.78c0,.09-.05.14-.15.14l-2.67,0Z" transform="translate(-49 -299)"/><path class="cls-2" d="M259.28,364.89a2.5,2.5,0,0,0,.2.66,1,1,0,0,1,.09.29c0,.05-.06.13-.18.25a37.55,37.55,0,0,1-3.85,3.18,4,4,0,0,0-.69.52q-.1.18-.21.18c-.06,0-.13-.05-.21-.14a6,6,0,0,1-.59-.84,9.48,9.48,0,0,0,1.34-.74A29.08,29.08,0,0,0,259.28,364.89Zm-3.64-8.13a16.09,16.09,0,0,1,2.7,3,.16.16,0,0,1,0,.09s0,.09-.12.17l-.42.38c-.06.06-.11.1-.15.1s-.06,0-.11-.1a18.41,18.41,0,0,0-2.64-3c-.05,0-.08-.07-.08-.09s.06-.08.18-.19l.3-.24a.38.38,0,0,1,.21-.1A.14.14,0,0,1,255.64,356.76Zm8.64,8.32a10.75,10.75,0,0,1-6.6,8.08.68.68,0,0,1-.25.09c-.06,0-.14-.08-.25-.23a1.35,1.35,0,0,0-.54-.48,10.84,10.84,0,0,0,5.56-4.43,9.53,9.53,0,0,0,1.37-5,11.11,11.11,0,0,0-.15-2,9.29,9.29,0,0,1,1.06.12c.15,0,.22.08.22.17a1,1,0,0,1-.1.38,4.45,4.45,0,0,0-.12,1.32,12.44,12.44,0,0,0,1.74,4.69,10.65,10.65,0,0,0,3.4,3.34,16.92,16.92,0,0,0,2.18,1.13,1.58,1.58,0,0,0-.6.58c-.1.15-.17.23-.22.23a.83.83,0,0,1-.26-.11A11.63,11.63,0,0,1,264.28,365.08Zm-2.06-6.26h7.42a1,1,0,0,0,.4-.06.45.45,0,0,1,.2-.06q.13,0,.45.3c.22.21.33.36.33.44a.33.33,0,0,1-.14.22,1.4,1.4,0,0,0-.32.46A18.63,18.63,0,0,1,268,363.8c-.11.11-.17.17-.21.17a.54.54,0,0,1-.23-.13,1.47,1.47,0,0,0-.62-.29,14.56,14.56,0,0,0,2.76-3.89h-7.92a19.69,19.69,0,0,1-2.34,3.64c-.09.12-.16.17-.2.17a.72.72,0,0,1-.27-.13,2.34,2.34,0,0,0-.63-.29,15.9,15.9,0,0,0,3.64-6.27,7.2,7.2,0,0,0,.28-1.44,6,6,0,0,1,1,.31c.12.05.18.12.18.19a.45.45,0,0,1-.16.26,4.15,4.15,0,0,0-.34.79C262.69,357.7,262.43,358.34,262.22,358.82Z" transform="translate(-49 -299)"/><path class="cls-2" d="M197,394.05a14.55,14.55,0,0,0,6.4-6.28,17.77,17.77,0,0,0,2-8H202.5l-1.81,0c-.1,0-.15-.05-.15-.14V379c0-.09.05-.14.15-.14l1.81,0h1.85l1.83,0a.14.14,0,0,1,.16.16v.28a16,16,0,0,0,.21,2.22,16.48,16.48,0,0,0,8,12.46,1.41,1.41,0,0,0-.55.56c-.1.15-.18.22-.23.22a.6.6,0,0,1-.23-.12,17.59,17.59,0,0,1-5.31-5.48,18.13,18.13,0,0,1-2.28-6.58,15.5,15.5,0,0,1-2.78,7.44,16.36,16.36,0,0,1-5,4.62.63.63,0,0,1-.26.11s-.13-.07-.25-.2A1.52,1.52,0,0,0,197,394.05Z" transform="translate(-49 -299)"/><path class="cls-2" d="M223.45,389.45h-5.52l-2.65,0c-.09,0-.13-.05-.13-.14v-.66c0-.09,0-.14.13-.14l2.65,0h5.52a10.3,10.3,0,0,0-.14-2.08c.34.07.65.15.94.24a18.45,18.45,0,0,0,2.9-2h-5.74l-2.6,0c-.1,0-.15-.05-.15-.14v-.62c0-.09.05-.14.15-.14l2.6,0h5.65a2,2,0,0,0,.53,0,.93.93,0,0,1,.19,0q.15,0,.48.36a.93.93,0,0,1,.32.54.23.23,0,0,1-.17.23,2.46,2.46,0,0,0-.82.47,23.46,23.46,0,0,1-3.17,2,5.29,5.29,0,0,0,0,.78v.36h5.44l2.64,0c.1,0,.15.05.15.14v.66c0,.09-.05.14-.15.14l-2.64,0h-5.44v2.34l0,1.72a1.32,1.32,0,0,1-.49,1.18,3.6,3.6,0,0,1-1.66.31l-1,0a1,1,0,0,1-.3-.05s-.07-.11-.1-.26a3,3,0,0,0-.34-.72,15.1,15.1,0,0,0,2,.13,1.08,1.08,0,0,0,.71-.18.79.79,0,0,0,.21-.62Zm3.62-8.38a17.55,17.55,0,0,0,1.44-2.6,3.78,3.78,0,0,0,.22-.88,4.54,4.54,0,0,1,.92.37c.13.07.19.14.19.23a.27.27,0,0,1-.11.2,1.13,1.13,0,0,0-.38.46q-.51,1-1.32,2.22H229l2.81,0q.15,0,.15.12l0,1v.8l0,2.1c0,.09,0,.13-.15.13h-.67c-.09,0-.13,0-.13-.13v-3.13H216.83V385c0,.09-.05.13-.14.13H216c-.1,0-.14,0-.14-.13l0-2.1v-.69l0-1.06c0-.08,0-.12.14-.12l2.8,0Zm-8.37-3.26a15.5,15.5,0,0,1,1.56,2.26.19.19,0,0,1,.05.11c0,.05-.07.11-.2.2l-.29.13a.77.77,0,0,1-.27.11s-.07,0-.11-.11a12.38,12.38,0,0,0-1.54-2.32.12.12,0,0,1,0-.08s.08-.08.23-.15l.28-.15a.55.55,0,0,1,.21-.07A.15.15,0,0,1,218.7,377.81Zm3.91,0a.22.22,0,0,1,0-.1s.06-.1.19-.16l.31-.11a.49.49,0,0,1,.17-.06s.08,0,.13.1a13.2,13.2,0,0,1,1.3,2.35.23.23,0,0,1,0,.09s-.09.1-.26.17l-.27.12a1.08,1.08,0,0,1-.26.09c-.06,0-.1,0-.12-.13A11.54,11.54,0,0,0,222.61,377.81Z" transform="translate(-49 -299)"/><path class="cls-2" d="M243.47,388.87h-5.36l-2.69,0c-.09,0-.13,0-.13-.13v-.69c0-.09,0-.13.13-.13l2.69,0h5.36v-3.44h-3.55l-2.84,0c-.09,0-.13,0-.13-.14v-.7c0-.09,0-.14.13-.14l2.84,0h3.55v-3.52q-2.82.48-6,.8a.66.66,0,0,1-.17,0c-.1,0-.19-.1-.27-.31a2.48,2.48,0,0,0-.36-.57q3.51-.26,6.62-.8a34.1,34.1,0,0,0,4.26-1,5.4,5.4,0,0,0,1.47-.65,7.57,7.57,0,0,1,.81.67c.09.09.14.16.14.21s-.08.19-.24.19a2.94,2.94,0,0,0-.72.11,46,46,0,0,1-4.61,1.17v3.69H248l2.82,0a.13.13,0,0,1,.14.14v.7a.13.13,0,0,1-.14.14l-2.82,0h-3.57V388h5.07l2.68,0c.1,0,.15,0,.15.13v.69c0,.09-.05.13-.15.13l-2.68,0h-5.07v1.59l0,2.48a1.6,1.6,0,0,1-.48,1.31,4.41,4.41,0,0,1-2.45.41h-.7a.63.63,0,0,1-.3,0,.74.74,0,0,1-.12-.3,2.23,2.23,0,0,0-.29-.76,15.5,15.5,0,0,0,2.22.13,1.27,1.27,0,0,0,.95-.27,1,1,0,0,0,.19-.7Z" transform="translate(-49 -299)"/><path class="cls-2" d="M258,387l-1.09.09-.93.07a2.38,2.38,0,0,0-.77.16.31.31,0,0,1-.19.06c-.08,0-.14-.07-.19-.22a8,8,0,0,1-.15-.87c.42,0,.77.05,1,.05h.3q.69-.87,1.68-2.34a26.47,26.47,0,0,0-3-3.09.18.18,0,0,1-.06-.1.61.61,0,0,1,.13-.23l.19-.21c.09-.11.16-.17.2-.17s.05,0,.09.06l.49.45.42.39a28.44,28.44,0,0,0,1.64-2.79,3,3,0,0,0,.33-.93,5.83,5.83,0,0,1,.87.42.29.29,0,0,1,.16.22.23.23,0,0,1-.14.2,2,2,0,0,0-.42.57c-.6,1-1.22,1.95-1.88,2.9.33.33.82.85,1.45,1.57.43-.65,1-1.63,1.79-2.92a4.34,4.34,0,0,0,.38-.9,5.49,5.49,0,0,1,.84.42c.11.07.16.14.16.22s-.06.14-.18.22a4.36,4.36,0,0,0-.66.91q-1.59,2.52-3.48,5.1c.94-.06,2-.15,3.25-.29-.15-.4-.37-.86-.63-1.39a.23.23,0,0,1,0-.09s.07-.1.22-.18l.21-.1a.52.52,0,0,1,.2-.07.09.09,0,0,1,.09.07,17.93,17.93,0,0,1,1.3,3.36.45.45,0,0,1,0,.08s-.07.09-.2.14l-.27.13-.23.06s-.07,0-.09-.12c-.12-.48-.23-.88-.34-1.2l-1.66.21v5.3l0,3c0,.09-.05.13-.14.13h-.68c-.1,0-.14,0-.14-.13l0-3Zm-3.28,6.52a13.84,13.84,0,0,0,1-3.87c0-.31.05-.54.05-.7v-.27a4.79,4.79,0,0,1,.78.16c.17.06.26.13.26.2a.6.6,0,0,1-.08.24,2.35,2.35,0,0,0-.15.54,19,19,0,0,1-1,3.82c-.05.15-.1.22-.15.22a.7.7,0,0,1-.25-.12A1.09,1.09,0,0,0,254.68,393.49Zm5.58-5,.17-.05s.08.05.11.13a26.19,26.19,0,0,1,1,3.47.34.34,0,0,1,0,.09c0,.05-.07.1-.21.14l-.3.1a1,1,0,0,1-.25.07c-.05,0-.08,0-.09-.13a16,16,0,0,0-.84-3.53l0-.08s.08-.08.24-.13Zm.36,5.92A6,6,0,0,0,264,392.1a6.29,6.29,0,0,0,.82-3c0-.22,0-.43,0-.63a8.17,8.17,0,0,0-.08-1.11,5.91,5.91,0,0,1,.87.11c.21,0,.31.1.31.19a2.35,2.35,0,0,1-.1.38,7.05,7.05,0,0,0-.13,1,8,8,0,0,1-1,3.67,6.76,6.76,0,0,1-3.12,2.34.73.73,0,0,1-.23.07c-.07,0-.14-.07-.23-.23A1.52,1.52,0,0,0,260.62,394.39Zm5.68-11.66v-2h-1.6l-2.66,0c-.1,0-.15-.05-.15-.14V380c0-.09.05-.14.15-.14l2.66,0h1.6v-.69a11.43,11.43,0,0,0-.12-2,8.65,8.65,0,0,1,1,.1c.15,0,.22.06.22.14a1,1,0,0,1-.12.34,4.51,4.51,0,0,0-.1,1.34v.72h2.25l2.67,0a.13.13,0,0,1,.14.14v.58a.13.13,0,0,1-.14.14l-2.67,0h-2.25v2h1.7l2.5,0c.09,0,.13.05.13.15v.57c0,.09,0,.14-.13.14l-2.5,0H265.1l-2.5,0c-.08,0-.12-.05-.12-.14v-.57q0-.15.12-.15l2.5,0Zm-3.36,3.32v2.06c0,.09,0,.14-.12.14h-.64a.13.13,0,0,1-.14-.14l0-1.58v-.42l0-.72c0-.11,0-.16.14-.16l2.64,0h4.42l2.64,0a.13.13,0,0,1,.14.14l0,.66v.5l0,1.58a.13.13,0,0,1-.14.14h-.64a.13.13,0,0,1-.14-.14v-2.06Zm8.84,5.48a1.56,1.56,0,0,0,.51.34c.19.09.29.19.29.31s0,.07,0,.13a3.1,3.1,0,0,1-.56,2,3,3,0,0,1-2.18.58,4.65,4.65,0,0,1-1.72-.2c-.38-.19-.57-.63-.57-1.31V389.6a16.79,16.79,0,0,0-.1-2.27,8.22,8.22,0,0,1,1,.11q.24,0,.24.15a1,1,0,0,1-.13.38,8.2,8.2,0,0,0-.09,1.68v3.54c0,.4.06.64.17.72a3,3,0,0,0,1.24.16q1.33,0,1.62-.42a3.07,3.07,0,0,0,.32-1.63C271.79,391.85,271.78,391.69,271.78,391.53Z" transform="translate(-49 -299)"/><path class="cls-2" d="M281.33,381.05c-.1-.28-.27-.8-.52-1.56a4,4,0,0,0-.68-1.28,8,8,0,0,1,1.33-.12c.19,0,.29.08.29.23a2.13,2.13,0,0,1,0,.27.49.49,0,0,0,0,.12,3.51,3.51,0,0,0,.16.81c.15.51.28,1,.4,1.34a41.54,41.54,0,0,0,4.47-1.17l.07,0s.07,0,.1.1a1.76,1.76,0,0,1,.16.56s0,0,0,.07-.06.14-.17.17c-1.23.39-2.69.77-4.37,1.14a24.07,24.07,0,0,0,1,2.45,27.72,27.72,0,0,0,4.05-1.13l.1,0c.07,0,.11,0,.14.12a3.07,3.07,0,0,1,.14.57s0,.06,0,.08a.17.17,0,0,1-.13.17c-1.21.38-2.51.73-3.91,1a13,13,0,0,0,3.19,4.27.24.24,0,0,1,.1.17.26.26,0,0,1,0,.11,3.9,3.9,0,0,1-.38.62.22.22,0,0,1-.17.11.43.43,0,0,1-.21-.09,6.4,6.4,0,0,0-1.45-.64,11.3,11.3,0,0,0-3.82-.6,5.27,5.27,0,0,0-2.73.59,1.64,1.64,0,0,0-.87,1.45c0,.87.52,1.49,1.57,1.86a12,12,0,0,0,3.62.43,13.93,13.93,0,0,0,2-.13c.1,0,.15,0,.15.13a.28.28,0,0,1,0,.08,5.29,5.29,0,0,1-.16.63.27.27,0,0,1-.2.23q-.9.09-1.86.09c-4,0-6.05-1.08-6.05-3.26a2.5,2.5,0,0,1,1.41-2.26,6.07,6.07,0,0,1,3.11-.7,10.63,10.63,0,0,1,4.38.76,20.76,20.76,0,0,1-2.5-3.64,43.73,43.73,0,0,1-5.77.69.2.2,0,0,1-.21-.18,6.59,6.59,0,0,1-.15-.7,37.55,37.55,0,0,0,5.71-.67,25.45,25.45,0,0,1-1-2.46,40.47,40.47,0,0,1-5.32.63.23.23,0,0,1-.25-.18c0-.23-.07-.47-.11-.72A39,39,0,0,0,281.33,381.05Z" transform="translate(-49 -299)"/><path class="cls-2" d="M346.47,357.07h3.43l2.08,0q.15,0,.15.12v.58c0,.09-.05.14-.15.14l-2.08,0H349a12.06,12.06,0,0,1,.8,1.68.25.25,0,0,1,0,.07s-.06.09-.19.13l-.37.12-.21.05c-.06,0-.09,0-.11-.12a10.18,10.18,0,0,0-.84-1.93h-2a12.46,12.46,0,0,1-1.87,2.29c-.12.13-.2.19-.24.19a.68.68,0,0,1-.26-.17,1.09,1.09,0,0,0-.49-.25A11.15,11.15,0,0,0,346,356a2,2,0,0,0,.19-.76,4.34,4.34,0,0,1,.93.22q.18.07.18.18a.43.43,0,0,1-.14.25,1.48,1.48,0,0,0-.32.5C346.72,356.62,346.59,356.86,346.47,357.07Zm4.5,10.37h-5.15s-.08.22-.2.53-.15.33-.2.46-.11.16-.18.16a1.75,1.75,0,0,1-.34,0c-.29-.06-.44-.12-.44-.17a.58.58,0,0,1,0-.13,21.58,21.58,0,0,0,1.13-3.18,5,5,0,0,0,.26-1.27.14.14,0,0,1,.16-.16l2.82,0h2.62l0-2.28H348l-2.86,0c-.09,0-.13,0-.13-.11v-.61c0-.09,0-.14.13-.14l2.86,0h7.58l3,0c.09,0,.13.05.13.14l0,1.34V363l0,1.36c0,.09,0,.14-.13.14l-3,0H352.4l0,2.23H357l2.88,0c.11,0,.17.05.17.15s-.09.66-.17,1.49a6.8,6.8,0,0,1-.59,2.71,2,2,0,0,1-1.85.84c-.44,0-.92,0-1.43-.07a.62.62,0,0,1-.31-.08.71.71,0,0,1-.09-.31,1.52,1.52,0,0,0-.31-.66,10,10,0,0,0,2,.23,1.41,1.41,0,0,0,1.26-.48,9,9,0,0,0,.49-3h-6.62l0,2.37c0,.88,0,1.69.07,2.41q0,.06,0,.6c0,.12,0,.2,0,.23s-.05.14-.17.14h-.7c-.1,0-.16,0-.16-.14l0-2.11c0-.42,0-.79,0-1.13l0-1.87a14.91,14.91,0,0,1-7.36,4.58l-.25.07c-.07,0-.15-.08-.25-.24a1.34,1.34,0,0,0-.47-.5A15.59,15.59,0,0,0,351,367.44Zm-4.88-.76h5.44l0-2.23h-4.76A21.17,21.17,0,0,1,346.09,366.68Zm7.94-9.61h4.25l2.39,0c.07,0,.11,0,.11.12v.58c0,.09,0,.14-.11.14l-2.39,0h-1.64a11,11,0,0,1,.85,1.66.25.25,0,0,1,0,.08c0,.05-.06.1-.17.14l-.37.14-.18,0s-.09,0-.12-.12a9.19,9.19,0,0,0-.94-1.95h-2.08a11.37,11.37,0,0,1-1.37,2c-.11.13-.19.2-.24.2a.63.63,0,0,1-.24-.14,1.29,1.29,0,0,0-.53-.22,10.33,10.33,0,0,0,2.25-3.7,3.6,3.6,0,0,0,.15-.74,5.37,5.37,0,0,1,.86.21c.15,0,.23.11.23.19a.44.44,0,0,1-.16.27,1.43,1.43,0,0,0-.26.45Zm-1.66,4.32,0,2.28h5.33v-2.28Z" transform="translate(-49 -299)"/><path class="cls-2" d="M365.9,370.27l-2.68,0a.13.13,0,0,1-.14-.14v-.76a.13.13,0,0,1,.14-.14l2.68,0h11.36l2.68,0a.13.13,0,0,1,.14.14v.76a.13.13,0,0,1-.14.14l-2.68,0Zm2-10.76-2.84,0a.12.12,0,0,1-.14-.14v-.74a.12.12,0,0,1,.14-.14l2.84,0h7.16l2.86,0a.13.13,0,0,1,.14.14v.74a.13.13,0,0,1-.14.14l-2.86,0Z" transform="translate(-49 -299)"/><path class="cls-2" d="M388.08,364.89a2.5,2.5,0,0,0,.2.66,1,1,0,0,1,.09.29c0,.05-.06.13-.19.25a37.67,37.67,0,0,1-3.84,3.18,4,4,0,0,0-.69.52q-.11.18-.21.18c-.06,0-.13-.05-.21-.14a6,6,0,0,1-.59-.84,9.48,9.48,0,0,0,1.34-.74A29.08,29.08,0,0,0,388.08,364.89Zm-3.65-8.13a16.13,16.13,0,0,1,2.71,3,.16.16,0,0,1,0,.09s0,.09-.12.17l-.42.38a.31.31,0,0,1-.15.1s-.07,0-.11-.1a18.41,18.41,0,0,0-2.64-3c-.05,0-.08-.07-.08-.09s.06-.08.18-.19l.3-.24a.38.38,0,0,1,.21-.1A.1.1,0,0,1,384.43,356.76Zm8.65,8.32a10.75,10.75,0,0,1-6.6,8.08.68.68,0,0,1-.25.09c-.06,0-.14-.08-.25-.23a1.41,1.41,0,0,0-.54-.48,10.84,10.84,0,0,0,5.56-4.43,9.52,9.52,0,0,0,1.36-5,11.23,11.23,0,0,0-.14-2,9.29,9.29,0,0,1,1.06.12c.15,0,.22.08.22.17a1.26,1.26,0,0,1-.1.38,4.41,4.41,0,0,0-.12,1.31,12.26,12.26,0,0,0,1.74,4.7,10.65,10.65,0,0,0,3.4,3.34,17.06,17.06,0,0,0,2.18,1.12,1.69,1.69,0,0,0-.6.59c-.1.15-.17.23-.22.23a.83.83,0,0,1-.26-.11A11.6,11.6,0,0,1,393.08,365.08ZM391,358.82h7.42a1,1,0,0,0,.4-.06.45.45,0,0,1,.19-.06c.1,0,.25.1.46.3s.33.36.33.44a.33.33,0,0,1-.14.22,1.44,1.44,0,0,0-.32.45,18.39,18.39,0,0,1-2.52,3.69c-.11.11-.18.17-.21.17a.49.49,0,0,1-.23-.13,1.53,1.53,0,0,0-.62-.29,14.79,14.79,0,0,0,2.76-3.89h-7.92a19.69,19.69,0,0,1-2.34,3.64c-.09.12-.16.17-.2.17a.72.72,0,0,1-.27-.13,2.34,2.34,0,0,0-.63-.29,16,16,0,0,0,3.64-6.28,6.36,6.36,0,0,0,.27-1.43,5.89,5.89,0,0,1,1,.31c.12.05.18.12.18.19a.51.51,0,0,1-.16.26,3.53,3.53,0,0,0-.34.79C391.49,357.7,391.23,358.34,391,358.82Z" transform="translate(-49 -299)"/><path class="cls-2" d="M325,394.05a14.55,14.55,0,0,0,6.4-6.28,17.77,17.77,0,0,0,2-8H330.5l-1.81,0c-.1,0-.15-.05-.15-.14V379c0-.09,0-.14.15-.14l1.81,0h1.85l1.83,0a.14.14,0,0,1,.16.16v.28a17.38,17.38,0,0,0,.2,2.22,16.52,16.52,0,0,0,8,12.46,1.35,1.35,0,0,0-.55.56c-.1.15-.18.22-.23.22a.49.49,0,0,1-.23-.13,17.49,17.49,0,0,1-5.32-5.47,18.31,18.31,0,0,1-2.27-6.58,15.5,15.5,0,0,1-2.78,7.44,16.36,16.36,0,0,1-5,4.62.63.63,0,0,1-.26.11s-.13-.07-.25-.2A1.52,1.52,0,0,0,325,394.05Z" transform="translate(-49 -299)"/><path class="cls-2" d="M351.45,389.45h-5.52l-2.65,0c-.09,0-.13-.05-.13-.14v-.66c0-.09,0-.14.13-.14l2.65,0h5.52a10.3,10.3,0,0,0-.14-2.08c.34.07.65.15.94.24a18.45,18.45,0,0,0,2.9-2h-5.74l-2.6,0c-.1,0-.15-.05-.15-.14v-.62c0-.09,0-.14.15-.14l2.6,0h5.65a2,2,0,0,0,.53,0,.93.93,0,0,1,.19,0q.15,0,.48.36a.93.93,0,0,1,.32.54.23.23,0,0,1-.17.23,2.46,2.46,0,0,0-.82.47,23.46,23.46,0,0,1-3.17,2,5.29,5.29,0,0,0,0,.78v.36h5.44l2.64,0c.1,0,.15.05.15.14v.66c0,.09-.05.14-.15.14l-2.64,0h-5.44v2.34l0,1.72a1.32,1.32,0,0,1-.49,1.18,3.6,3.6,0,0,1-1.66.31l-1,0a1,1,0,0,1-.3-.05s-.07-.11-.1-.26a3,3,0,0,0-.34-.72,15.1,15.1,0,0,0,2,.13,1.08,1.08,0,0,0,.71-.18.79.79,0,0,0,.21-.62Zm3.62-8.38a16.61,16.61,0,0,0,1.43-2.6,3.36,3.36,0,0,0,.23-.88,5.12,5.12,0,0,1,.92.36c.13.08.19.15.19.24a.27.27,0,0,1-.11.2,1.23,1.23,0,0,0-.39.46,24.65,24.65,0,0,1-1.31,2.22H357l2.81,0q.15,0,.15.12l0,1v.8l0,2.1c0,.09-.05.13-.15.13h-.67c-.09,0-.13,0-.13-.13v-3.13H344.83V385c0,.09-.05.13-.14.13H344c-.09,0-.13,0-.13-.13l0-2.1v-.69l0-1.06c0-.08,0-.12.13-.12l2.81,0Zm-8.37-3.26a15.5,15.5,0,0,1,1.56,2.26.17.17,0,0,1,.05.11c0,.05-.07.11-.2.2l-.29.13a.77.77,0,0,1-.27.11s-.07,0-.11-.11a12.38,12.38,0,0,0-1.54-2.32.12.12,0,0,1,0-.08s.08-.08.22-.16l.29-.14a.55.55,0,0,1,.21-.07A.15.15,0,0,1,346.7,377.81Zm3.91,0a.22.22,0,0,1,0-.1s.06-.1.19-.16l.31-.11a.49.49,0,0,1,.17-.06s.08,0,.13.1a13.2,13.2,0,0,1,1.3,2.35.23.23,0,0,1,0,.09s-.09.1-.26.17l-.27.12a1.08,1.08,0,0,1-.26.09c-.06,0-.1,0-.12-.13A11.54,11.54,0,0,0,350.61,377.81Z" transform="translate(-49 -299)"/><path class="cls-2" d="M371.47,388.87h-5.36l-2.69,0c-.09,0-.13,0-.13-.14v-.68c0-.09,0-.14.13-.14l2.69,0h5.36v-3.44h-3.55l-2.84,0c-.09,0-.13,0-.13-.14v-.7c0-.1,0-.14.13-.14l2.84,0h3.55v-3.52q-2.82.48-6,.8a.66.66,0,0,1-.17,0c-.1,0-.19-.1-.27-.31a2.48,2.48,0,0,0-.36-.57q3.51-.26,6.62-.8a34.1,34.1,0,0,0,4.26-1,5.4,5.4,0,0,0,1.47-.65,7.57,7.57,0,0,1,.81.67c.09.09.14.16.14.21s-.08.19-.24.19a2.94,2.94,0,0,0-.72.11,46,46,0,0,1-4.61,1.17v3.69H376l2.82,0a.12.12,0,0,1,.14.14v.7a.13.13,0,0,1-.14.14l-2.82,0h-3.57V388h5.07l2.68,0c.1,0,.15.05.15.14v.68c0,.1-.05.14-.15.14l-2.68,0h-5.07v1.58l0,2.49a1.6,1.6,0,0,1-.48,1.31,4.41,4.41,0,0,1-2.45.41h-.7c-.16,0-.26,0-.3,0a.62.62,0,0,1-.12-.29,2.23,2.23,0,0,0-.29-.76,15.5,15.5,0,0,0,2.22.13,1.27,1.27,0,0,0,.95-.27,1,1,0,0,0,.19-.7Z" transform="translate(-49 -299)"/><path class="cls-2" d="M386,387l-1.09.09-.93.07a2.38,2.38,0,0,0-.77.16.31.31,0,0,1-.19.06c-.08,0-.14-.07-.19-.22a8,8,0,0,1-.15-.87c.42,0,.77.05,1,.05h.3q.69-.87,1.68-2.34a26.67,26.67,0,0,0-3-3.1.14.14,0,0,1-.06-.09.54.54,0,0,1,.13-.23l.19-.21c.09-.11.16-.17.2-.17s.05,0,.09.06l.49.45.42.39a28.44,28.44,0,0,0,1.64-2.79,3.06,3.06,0,0,0,.33-.93,5.83,5.83,0,0,1,.87.42.29.29,0,0,1,.16.22.23.23,0,0,1-.14.2,2,2,0,0,0-.42.57c-.6,1-1.22,1.95-1.88,2.9.33.33.82.85,1.45,1.57.43-.65,1-1.63,1.79-2.92a4.34,4.34,0,0,0,.38-.9,5.49,5.49,0,0,1,.84.42c.11.07.16.14.16.22s-.06.14-.18.22a4.36,4.36,0,0,0-.66.91q-1.59,2.52-3.48,5.09c.94,0,2-.14,3.25-.28-.15-.4-.37-.86-.63-1.39a.23.23,0,0,1,0-.09s.07-.1.22-.18l.21-.1a.52.52,0,0,1,.2-.07.09.09,0,0,1,.09.07,17.93,17.93,0,0,1,1.3,3.36.45.45,0,0,1,0,.08s-.07.09-.2.14l-.27.13-.23.06s-.07,0-.09-.12c-.12-.48-.23-.89-.34-1.2l-1.66.21v5.3l0,3c0,.09-.05.13-.14.13h-.68c-.1,0-.14,0-.14-.13l0-3Zm-3.28,6.52a13.81,13.81,0,0,0,1.05-3.88c0-.3,0-.53,0-.69v-.27a4.79,4.79,0,0,1,.78.16c.17.06.26.13.26.2a.6.6,0,0,1-.08.24,2.35,2.35,0,0,0-.15.54,19,19,0,0,1-1,3.82c-.05.15-.1.22-.15.22a.7.7,0,0,1-.25-.12A1.09,1.09,0,0,0,382.68,393.49Zm5.58-5,.17-.05s.08.05.11.13a26.19,26.19,0,0,1,1,3.47.32.32,0,0,1,0,.08q0,.09-.21.15l-.3.1a1,1,0,0,1-.25.07c-.05,0-.08,0-.09-.13a16,16,0,0,0-.84-3.53l0-.08s.08-.08.24-.13Zm.36,5.92A6,6,0,0,0,392,392.1a6.29,6.29,0,0,0,.82-3c0-.22,0-.43,0-.63a8.05,8.05,0,0,0-.08-1.11,5.91,5.91,0,0,1,.87.11c.21,0,.31.1.31.19a2.35,2.35,0,0,1-.1.38,7.05,7.05,0,0,0-.13,1,8,8,0,0,1-1,3.67,6.76,6.76,0,0,1-3.12,2.34.73.73,0,0,1-.23.07c-.07,0-.14-.07-.23-.23A1.52,1.52,0,0,0,388.62,394.39Zm5.68-11.66v-2h-1.6l-2.66,0c-.1,0-.15-.05-.15-.14V380c0-.1.05-.14.15-.14l2.66,0h1.6v-.69a11.43,11.43,0,0,0-.12-2,8.65,8.65,0,0,1,1,.1c.15,0,.22.06.22.14a1,1,0,0,1-.12.34,4.51,4.51,0,0,0-.1,1.34v.72h2.25l2.67,0a.12.12,0,0,1,.14.14v.58a.13.13,0,0,1-.14.14l-2.67,0h-2.25v2h1.7l2.5,0c.09,0,.13.05.13.15v.57c0,.09,0,.14-.13.14l-2.5,0H393.1l-2.5,0c-.08,0-.12-.05-.12-.14v-.57q0-.15.12-.15l2.5,0Zm-3.36,3.32v2.06c0,.09,0,.14-.12.14h-.64a.13.13,0,0,1-.14-.14l0-1.58v-.42l0-.72c0-.11,0-.16.14-.16l2.64,0h4.42l2.64,0a.13.13,0,0,1,.14.14l0,.66v.5l0,1.58a.13.13,0,0,1-.14.14h-.64a.13.13,0,0,1-.14-.14v-2.06Zm8.84,5.48a1.56,1.56,0,0,0,.51.34c.19.09.29.19.29.31s0,.06,0,.13a3.1,3.1,0,0,1-.56,2,3,3,0,0,1-2.18.58,4.65,4.65,0,0,1-1.72-.2q-.57-.29-.57-1.32V389.6a16.79,16.79,0,0,0-.1-2.27,8.22,8.22,0,0,1,1,.11q.24,0,.24.15a1,1,0,0,1-.13.38,8.2,8.2,0,0,0-.09,1.68v3.54c0,.4.06.64.17.72a3,3,0,0,0,1.24.16q1.33,0,1.62-.42a3.07,3.07,0,0,0,.32-1.63C399.79,391.85,399.78,391.69,399.78,391.53Z" transform="translate(-49 -299)"/><path class="cls-2" d="M409.33,381.05c-.1-.28-.27-.8-.52-1.56a4,4,0,0,0-.68-1.28,8,8,0,0,1,1.33-.12c.19,0,.29.08.29.23a2.13,2.13,0,0,1,0,.27.49.49,0,0,0,0,.12,3.51,3.51,0,0,0,.16.81c.15.51.28,1,.4,1.33a39.49,39.49,0,0,0,4.47-1.16l.07,0s.07,0,.1.1a1.76,1.76,0,0,1,.16.56s0,0,0,.07-.06.14-.17.17c-1.23.39-2.69.77-4.37,1.14a24.07,24.07,0,0,0,1,2.45,27.72,27.72,0,0,0,4.05-1.13l.1,0c.07,0,.11,0,.14.12a2.9,2.9,0,0,1,.14.57.56.56,0,0,0,0,.07.17.17,0,0,1-.13.18c-1.21.38-2.51.73-3.91,1a13,13,0,0,0,3.19,4.27.24.24,0,0,1,.1.17.26.26,0,0,1,0,.11,3.9,3.9,0,0,1-.38.62.22.22,0,0,1-.17.11.43.43,0,0,1-.21-.09,6.4,6.4,0,0,0-1.45-.64,11.3,11.3,0,0,0-3.82-.6,5.27,5.27,0,0,0-2.73.59,1.64,1.64,0,0,0-.87,1.45c0,.87.52,1.49,1.57,1.86a12,12,0,0,0,3.62.43,13.93,13.93,0,0,0,2-.13c.1,0,.15,0,.15.13a.28.28,0,0,1,0,.08,5.29,5.29,0,0,1-.16.63c0,.13-.1.21-.2.22a16.06,16.06,0,0,1-1.86.1c-4,0-6.05-1.08-6.05-3.26a2.5,2.5,0,0,1,1.41-2.26,6.07,6.07,0,0,1,3.11-.7,10.63,10.63,0,0,1,4.38.76,21.13,21.13,0,0,1-2.5-3.64,43.58,43.58,0,0,1-5.77.68.2.2,0,0,1-.21-.17,6.59,6.59,0,0,1-.15-.7,37.55,37.55,0,0,0,5.71-.67,25.45,25.45,0,0,1-1-2.46,40.47,40.47,0,0,1-5.32.63.23.23,0,0,1-.25-.18c0-.23-.07-.47-.11-.72A39,39,0,0,0,409.33,381.05Z" transform="translate(-49 -299)"/><path class="cls-2" d="M593.05,344.38a5.21,5.21,0,0,1,2.27-3.2,6.43,6.43,0,0,1,3.5-.92,6,6,0,0,1,4.36,1.54,4.33,4.33,0,0,1,1.37,3.26,4.25,4.25,0,0,1-1.09,3,4.5,4.5,0,0,1-2.56,1.31v.17a5,5,0,0,1,3.11,1.83,4.78,4.78,0,0,1,.91,3,5.28,5.28,0,0,1-1.9,4.29,6.32,6.32,0,0,1-4.2,1.38q-4.85,0-6.07-4.22l3.07-.9A3.58,3.58,0,0,0,597,357a2.85,2.85,0,0,0,1.85.55,2.72,2.72,0,0,0,2.23-1,3.49,3.49,0,0,0,.7-2.26c0-2.3-1.24-3.45-3.7-3.45h-1.46v-2.56h1.32q3.51,0,3.51-3a2.57,2.57,0,0,0-.81-2.07,2.66,2.66,0,0,0-1.82-.6,2.41,2.41,0,0,0-1.82.73,3.37,3.37,0,0,0-.83,1.89Z" transform="translate(-49 -299)"/><path class="cls-2" d="M613.21,356l-3.12.05a.4.4,0,0,1-.25-.05.51.51,0,0,1,0-.22v-2c0-.16.09-.25.28-.25l3.12.05h.6v-3.5l0-2.25a.35.35,0,0,1,0-.23.56.56,0,0,1,.24,0l3.43,0h3.2V344.3h-5.12a22.59,22.59,0,0,1-2.93,3.58c-.24.27-.42.4-.53.4s-.26-.16-.5-.47a5.26,5.26,0,0,0-1.39-1.36,18.36,18.36,0,0,0,4.63-6,8,8,0,0,0,.64-1.83c1.06.21,1.86.39,2.41.55q.45.15.45.42c0,.13-.1.28-.31.48a2.77,2.77,0,0,0-.63.9l-.5,1.08h10.33l3.43-.05c.13,0,.2,0,.23.05a.48.48,0,0,1,0,.22v1.85c0,.13,0,.21,0,.23a.39.39,0,0,1-.22,0l-3.43-.05h-3.85v3.33h2.67l3.42,0a.23.23,0,0,1,.26.26v1.88a.24.24,0,0,1-.26.27l-3.42-.05h-2.67v3.65h5.3l3.12-.05c.18,0,.27.09.27.25v2c0,.12,0,.2,0,.22a.37.37,0,0,1-.23.05l-3.12-.05h-5.3v1.22l0,4.08q0,.19-.06.24a.44.44,0,0,1-.22,0h-2.22c-.15,0-.23,0-.26-.06a.44.44,0,0,1,0-.22l0-4.08V356Zm3.25-2.41h4.22V350h-4.22Z" transform="translate(-49 -299)"/><path class="cls-2" d="M644.1,350.33a10.07,10.07,0,0,0,.73,1.81,2,2,0,0,1,.24.69c0,.13-.13.33-.4.6q-2.45,2.08-5,3.87a5.64,5.64,0,0,0-.76.61.48.48,0,0,1-.37.22c-.13,0-.28-.12-.42-.35a25.82,25.82,0,0,1-1.41-2.22,11.64,11.64,0,0,0,1.86-1A41.81,41.81,0,0,0,644.1,350.33Zm-4-10a25.36,25.36,0,0,1,3.44,3.62.52.52,0,0,1,.11.21q0,.1-.18.27l-1.45,1.36c-.17.13-.27.2-.32.2s-.11,0-.19-.16A20.58,20.58,0,0,0,638.1,342c-.09-.07-.13-.13-.13-.17s.08-.15.23-.28l1.43-1.15a.57.57,0,0,1,.27-.14A.6.6,0,0,1,640.13,340.36ZM660.25,359a6.17,6.17,0,0,0-1.32,1.83c-.22.39-.39.58-.5.58a1.85,1.85,0,0,1-.6-.22,14.25,14.25,0,0,1-7-7.58,13.58,13.58,0,0,1-7.52,7.77,2,2,0,0,1-.57.2c-.13,0-.3-.18-.5-.55a6.14,6.14,0,0,0-1.33-1.6,12.74,12.74,0,0,0,6.37-4.48,10.1,10.1,0,0,0,1.83-6,13.43,13.43,0,0,0-.21-2.6c.86,0,1.74.07,2.65.15.27.05.41.15.41.3a1.47,1.47,0,0,1-.15.55,4.28,4.28,0,0,0-.15,1.44,12,12,0,0,0,3.2,6.79A15.72,15.72,0,0,0,660.25,359Zm-17.45-11a17.53,17.53,0,0,0,4.18-7,12.41,12.41,0,0,0,.45-2.26c.67.1,1.52.28,2.54.53.3.08.45.2.45.35a.69.69,0,0,1-.25.45,3.62,3.62,0,0,0-.5,1.13q-.2.54-.57,1.5h7.67a1.37,1.37,0,0,0,.61-.1.89.89,0,0,1,.36-.1c.21,0,.57.25,1.1.74s.78.82.78,1a.54.54,0,0,1-.17.4,2.6,2.6,0,0,0-.45.75,28.81,28.81,0,0,1-2.62,4.6c-.23.35-.4.53-.5.53a1.63,1.63,0,0,1-.6-.33,6.78,6.78,0,0,0-1.69-.78,17.09,17.09,0,0,0,2.79-4.37H648a24.85,24.85,0,0,1-2.43,3.91c-.25.31-.42.46-.5.46a1.61,1.61,0,0,1-.58-.38A5.74,5.74,0,0,0,642.8,347.94Z" transform="translate(-49 -299)"/><path class="cls-2" d="M465.2,345.53a5.62,5.62,0,0,1,5.88-5.27,5.88,5.88,0,0,1,4.32,1.51,4.88,4.88,0,0,1,1.38,3.63,5.84,5.84,0,0,1-.95,3.21,18.15,18.15,0,0,1-2.9,3.25,20.56,20.56,0,0,0-4.65,5.3h8.58v2.5H465v-2.22a25.1,25.1,0,0,1,5.46-7.08,15,15,0,0,0,2.55-3,4.09,4.09,0,0,0,.5-2,2.64,2.64,0,0,0-.77-2,2.45,2.45,0,0,0-1.74-.61q-2.47,0-2.71,3.45Z" transform="translate(-49 -299)"/><path class="cls-2" d="M484.94,356l-3.13.05c-.14,0-.22,0-.24-.05a.37.37,0,0,1,0-.22v-2c0-.16.1-.25.28-.25l3.13.05h.6v-3.5l-.05-2.25c0-.13,0-.2.05-.23a.56.56,0,0,1,.24,0l3.43,0h3.2V344.3h-5.13a22.05,22.05,0,0,1-2.93,3.58c-.23.27-.41.4-.52.4s-.26-.16-.5-.47a5.29,5.29,0,0,0-1.4-1.36,18.1,18.1,0,0,0,4.63-6,8.11,8.11,0,0,0,.65-1.83c1.06.21,1.86.39,2.4.55q.45.15.45.42c0,.13-.1.28-.3.48a2.78,2.78,0,0,0-.64.9l-.5,1.08H499l3.43-.05c.13,0,.21,0,.23.05s0,.1,0,.22v1.85c0,.13,0,.21,0,.23s-.1,0-.22,0L499,344.3h-3.84v3.33h2.67l3.42,0c.17,0,.25.09.25.26v1.88c0,.18-.08.27-.25.27l-3.42-.05h-2.67v3.65h5.29l3.13-.05c.18,0,.27.09.27.25v2c0,.12,0,.2-.05.22s-.1.05-.22.05L500.4,356h-5.29v1.22l0,4.08q0,.19-.06.24a.38.38,0,0,1-.22,0h-2.22c-.14,0-.23,0-.25-.06s0-.1,0-.22l.05-4.08V356Zm3.24-2.41h4.23V350h-4.23Z" transform="translate(-49 -299)"/><path class="cls-2" d="M515.82,350.33a10.86,10.86,0,0,0,.73,1.81,1.85,1.85,0,0,1,.25.69c0,.13-.14.33-.4.6q-2.45,2.08-5,3.87a5.23,5.23,0,0,0-.75.61.51.51,0,0,1-.37.22c-.14,0-.28-.12-.43-.35-.62-.91-1.09-1.65-1.4-2.22a12,12,0,0,0,1.85-1A41.81,41.81,0,0,0,515.82,350.33Zm-4-10A25.38,25.38,0,0,1,515.3,344a.52.52,0,0,1,.11.21c0,.07-.06.16-.19.27l-1.45,1.36a.83.83,0,0,1-.32.2c-.05,0-.11,0-.18-.16a20.94,20.94,0,0,0-3.44-3.88c-.09-.07-.14-.13-.14-.17s.08-.15.24-.28l1.42-1.15a.67.67,0,0,1,.27-.14A.54.54,0,0,1,511.85,340.36ZM532,359a6.55,6.55,0,0,0-1.32,1.83c-.22.39-.38.58-.5.58a2,2,0,0,1-.6-.22,14.23,14.23,0,0,1-7-7.58,13.61,13.61,0,0,1-7.52,7.77,2.1,2.1,0,0,1-.57.2c-.14,0-.3-.18-.51-.55a6,6,0,0,0-1.33-1.6,12.72,12.72,0,0,0,6.38-4.48,10.1,10.1,0,0,0,1.83-6,13.43,13.43,0,0,0-.21-2.6c.85,0,1.74.07,2.65.15.27.05.4.15.4.3a1.47,1.47,0,0,1-.15.55,4.67,4.67,0,0,0-.14,1.44,11.91,11.91,0,0,0,3.2,6.79A15.68,15.68,0,0,0,532,359Zm-17.44-11a17.51,17.51,0,0,0,4.17-7,10.9,10.9,0,0,0,.45-2.26c.68.1,1.53.28,2.54.53.3.08.45.2.45.35a.71.71,0,0,1-.24.45,3.39,3.39,0,0,0-.5,1.13q-.2.54-.57,1.5h7.66a1.35,1.35,0,0,0,.61-.1.93.93,0,0,1,.37-.1c.2,0,.57.25,1.1.74s.78.82.78,1a.58.58,0,0,1-.17.4,2.22,2.22,0,0,0-.45.75,28.85,28.85,0,0,1-2.63,4.6c-.23.35-.39.53-.5.53a1.8,1.8,0,0,1-.6-.33,6.57,6.57,0,0,0-1.68-.78A16.78,16.78,0,0,0,528.1,345h-8.35a23.45,23.45,0,0,1-2.43,3.91c-.25.31-.42.46-.5.46a1.61,1.61,0,0,1-.57-.38A6,6,0,0,0,514.53,347.94Z" transform="translate(-49 -299)"/><path class="cls-2" d="M280.66,315.27v16.78h3.55v2.42H273.94v-2.42h3.74v-13.6a13.59,13.59,0,0,1-3.53,1.69l-.5-2.62a14.05,14.05,0,0,0,4.45-2.25Z" transform="translate(-49 -299)"/><path class="cls-2" d="M292.31,330.82l-3.12.05c-.14,0-.22,0-.25-.05a.44.44,0,0,1,0-.22v-2c0-.17.1-.25.29-.25l3.12.05h.6v-3.5l-.05-2.25c0-.13,0-.21.05-.23s.11,0,.24,0l3.43.05h3.2v-3.33h-5.13a21.08,21.08,0,0,1-2.93,3.57c-.23.27-.41.41-.52.41s-.26-.16-.5-.48a5.36,5.36,0,0,0-1.39-1.35,18.23,18.23,0,0,0,4.62-6,7.65,7.65,0,0,0,.65-1.83c1.06.21,1.86.4,2.41.55.3.11.45.25.45.43s-.1.28-.31.48a2.53,2.53,0,0,0-.63.9l-.5,1.07h10.32l3.43-.05a.38.38,0,0,1,.24.05.54.54,0,0,1,0,.22v1.86c0,.13,0,.21,0,.23a.44.44,0,0,1-.22,0l-3.43-.05h-3.84v3.33h2.67l3.42-.05a.24.24,0,0,1,.26.27v1.88a.24.24,0,0,1-.26.27l-3.42-.05h-2.67v3.65h5.3l3.12-.05c.18,0,.27.08.27.25v2c0,.13,0,.2,0,.23a.38.38,0,0,1-.23,0l-3.12-.05h-5.3v1.23l0,4.07a.36.36,0,0,1-.06.25.48.48,0,0,1-.22,0H300c-.15,0-.24,0-.26-.06s0-.1,0-.22l0-4.07v-1.23Zm3.25-2.4h4.22v-3.65h-4.22Z" transform="translate(-49 -299)"/><path class="cls-2" d="M323.2,325.15a10.7,10.7,0,0,0,.73,1.81,2,2,0,0,1,.24.69c0,.13-.13.33-.4.6q-2.44,2.08-5,3.87a4.89,4.89,0,0,0-.76.61.48.48,0,0,1-.37.22c-.13,0-.28-.12-.42-.36a25.82,25.82,0,0,1-1.41-2.22,11.62,11.62,0,0,0,1.86-1A42.68,42.68,0,0,0,323.2,325.15Zm-4-10a25.36,25.36,0,0,1,3.44,3.62.52.52,0,0,1,.11.21q0,.09-.18.27l-1.45,1.35c-.17.14-.27.21-.32.21s-.11,0-.19-.16a20.62,20.62,0,0,0-3.44-3.88c-.09-.07-.13-.13-.13-.17s.08-.15.23-.28l1.43-1.15a.53.53,0,0,1,.27-.15A.54.54,0,0,1,319.23,315.18Zm20.12,18.6a5.92,5.92,0,0,0-1.32,1.83c-.22.38-.39.57-.5.57a1.63,1.63,0,0,1-.6-.22,14.17,14.17,0,0,1-7-7.58,13.57,13.57,0,0,1-7.52,7.78,1.85,1.85,0,0,1-.57.19c-.13,0-.3-.18-.5-.55a6.25,6.25,0,0,0-1.33-1.59,12.8,12.8,0,0,0,6.37-4.48,10.1,10.1,0,0,0,1.83-6,13.43,13.43,0,0,0-.21-2.6c.86,0,1.74.07,2.65.14.27.05.4.15.4.31a1.42,1.42,0,0,1-.14.55,4.28,4.28,0,0,0-.15,1.44,12,12,0,0,0,3.2,6.79A15.63,15.63,0,0,0,339.35,333.78Zm-17.45-11a17.6,17.6,0,0,0,4.18-7,12.57,12.57,0,0,0,.45-2.26c.67.1,1.52.27,2.54.53.3.08.45.2.45.35a.69.69,0,0,1-.25.45,3.52,3.52,0,0,0-.5,1.12c-.13.36-.32.86-.57,1.51h7.67a1.53,1.53,0,0,0,.61-.1.76.76,0,0,1,.36-.1c.21,0,.57.24,1.1.73s.78.83.78,1a.55.55,0,0,1-.17.4,2.22,2.22,0,0,0-.45.75,29.26,29.26,0,0,1-2.62,4.6c-.23.35-.4.52-.5.52a1.63,1.63,0,0,1-.6-.33,7.59,7.59,0,0,0-1.69-.78,16.76,16.76,0,0,0,2.79-4.37h-8.35a25,25,0,0,1-2.43,3.92c-.26.3-.42.45-.5.45s-.28-.12-.58-.38A6,6,0,0,0,321.9,322.76Z" transform="translate(-49 -299)"/><path class="cls-2" d="M104.46,338.58c.66,0,1.43,0,2.32.13.27,0,.4.12.4.27a1.8,1.8,0,0,1-.14.4,1.16,1.16,0,0,0-.14.62h1.15l4,0c.15,0,.24,0,.27,0a.59.59,0,0,1,0,.24l0,1.39v.9l0,1.42q0,.21-.06.24s-.11,0-.24,0l-4-.05H106.9v1.05h3.51l3.43-.05c.18,0,.28.07.28.22v.09c0,.58-.07.92-.09,1a7.39,7.39,0,0,1-.52,2.42,2.32,2.32,0,0,1-2.25,1.05h-.33v5.13l0,2.4c0,.13,0,.21,0,.24a.51.51,0,0,1-.24,0l-3.64,0H99.23l-3.62,0c-.14,0-.22,0-.24,0a.38.38,0,0,1,0-.23l0-2.64v-4.1c-.41.15-1,.33-1.77.55a3.7,3.7,0,0,1-.56.1c-.19,0-.37-.21-.55-.63a3.81,3.81,0,0,0-.82-1.27c3.09-.48,5.16-1.39,6.23-2.73H95.36l-.2.45a.42.42,0,0,1-.4.28h-.1l-1.5-.13c-.24,0-.36-.08-.36-.17a.51.51,0,0,1,0-.17,16.68,16.68,0,0,0,1.05-2.79,8.65,8.65,0,0,0,.31-1.32c0-.23.11-.35.29-.35l3.41.05h1.45c0-.05,0-.39.07-1H97l-3.37,0c-.18,0-.28-.08-.28-.24v-1.17a.44.44,0,0,1,.05-.25.56.56,0,0,1,.23,0L97,340h2.46a9.22,9.22,0,0,0-.17-1.42c1,0,1.71.07,2.27.13q.45,0,.45.27a.57.57,0,0,1-.06.21,1.32,1.32,0,0,0-.09.19,1.6,1.6,0,0,0-.11.62h2.88A7.46,7.46,0,0,0,104.46,338.58Zm-5.95,19.17a17.25,17.25,0,0,1,2.14.93q.36.15.36.36c0,.17-.13.27-.38.3a3,3,0,0,0-1,.37A18.32,18.32,0,0,1,94,361.54l-.52,0a.37.37,0,0,1-.31-.13,1.91,1.91,0,0,1-.29-.4,5.47,5.47,0,0,0-1.1-1.35,19.75,19.75,0,0,0,5.65-1.27A4.13,4.13,0,0,0,98.51,357.75ZM96,345.23h2.8a6.67,6.67,0,0,0,.35-1.05H96.26Zm12.55,4.88H97.79v1.05H108.5Zm-10.71,3.47H108.5v-1H97.79Zm10.71,2.53v-1.05H97.79v1.05Zm-9.19-7.62h10c-.13-.38-.21-.6-.22-.66a10.42,10.42,0,0,0,1.6.13c.36,0,.58-.12.64-.37a7.66,7.66,0,0,0,.1-.81H106.9c0,.2,0,.43,0,.67s0,.24,0,.26,0,.21,0,.24-.1,0-.22,0h-1.8a.44.44,0,0,1-.26-.05.49.49,0,0,1,0-.23l0-.93h-4A6.15,6.15,0,0,1,99.31,348.49Zm1.89-3.26h3.43v-1.05h-3.17A8.84,8.84,0,0,1,101.2,345.23Zm.48-2.6h2.95v-1h-2.9C101.73,341.86,101.71,342.2,101.68,342.63Zm5.72,15.23a18.33,18.33,0,0,0,6.8,1.7,6.51,6.51,0,0,0-1.22,1.53c-.17.3-.35.45-.55.45a3.58,3.58,0,0,1-.59-.08,18.4,18.4,0,0,1-6.73-2.42c-.11-.09-.17-.15-.17-.19s.09-.11.27-.19l1.6-.75a1.11,1.11,0,0,1,.36-.13A.53.53,0,0,1,107.4,357.86Zm2.43-16.26H106.9v1h2.93Z" transform="translate(-49 -299)"/><path class="cls-2" d="M123,361.31h-2.2a.37.37,0,0,1-.23-.05s0-.1,0-.22l.05-9.26v-4.89l-.05-6.73c0-.13,0-.22.05-.24a.49.49,0,0,1,.23,0l3.47.05h9.25l3.47-.05c.14,0,.22,0,.24.05a.38.38,0,0,1,0,.23l0,5.9v5.68l0,9.2c0,.13,0,.21,0,.23a.37.37,0,0,1-.22,0h-2.23a.38.38,0,0,1-.24,0,.51.51,0,0,1,0-.22v-1.36H123.34V361c0,.13,0,.21,0,.23A.6.6,0,0,1,123,361.31Zm.3-18.95v3.27h11.21v-3.27Zm0,9h11.21V348H123.34Zm0,5.83h11.21v-3.45H123.34Z" transform="translate(-49 -299)"/><path class="cls-2" d="M690,300V652H50V300H690m1-1H49V653H691V299Z" transform="translate(-49 -299)"/></svg>